<svg xmlns="http://www.w3.org/2000/svg" xmlns:xlink="http://www.w3.org/1999/xlink" width="1080" zoomAndPan="magnify" viewBox="0 0 810 809.999993" height="1080" preserveAspectRatio="xMidYMid meet" version="1.0"><path fill="#000000" d="M 652.941406 412.378906 C 653.242188 420.464844 653.488281 428.550781 653.738281 436.636719 C 653.738281 436.636719 654.414062 460.921875 654.414062 460.921875 C 654.570312 469.085938 654.496094 477.285156 654.0625 485.511719 C 653.609375 493.738281 652.816406 502.011719 651.234375 510.269531 C 649.652344 518.515625 647.398438 526.8125 643.496094 534.789062 C 641.539062 538.765625 639.128906 542.648438 636.089844 546.195312 C 633.054688 549.730469 629.328125 552.882812 625.082031 555.222656 C 620.847656 557.582031 616.144531 559.066406 611.46875 559.742188 C 610.296875 559.921875 609.128906 560.03125 607.960938 560.125 C 607.378906 560.152344 606.792969 560.195312 606.214844 560.210938 C 606.214844 560.210938 604.558594 560.246094 604.558594 560.246094 C 604.558594 560.246094 598.492188 560.335938 598.492188 560.335938 C 598.492188 560.335938 574.226562 560.683594 574.226562 560.683594 C 541.875 560.976562 509.519531 561.410156 477.164062 561.503906 C 477.164062 561.503906 428.632812 561.75 428.632812 561.75 C 428.632812 561.75 380.101562 561.792969 380.101562 561.792969 C 380.101562 561.792969 355.835938 561.816406 355.835938 561.816406 C 347.726562 561.832031 339.554688 561.785156 331.394531 561.613281 C 323.230469 561.441406 315.046875 561.105469 306.835938 560.59375 C 298.625 560.066406 290.386719 559.351562 282.101562 558.214844 C 273.8125 557.058594 265.464844 555.546875 257.054688 552.894531 C 252.855469 551.546875 248.628906 549.921875 244.484375 547.667969 C 240.355469 545.429688 236.265625 542.53125 232.816406 538.726562 C 229.355469 534.945312 226.726562 530.289062 225.140625 525.585938 C 223.546875 520.867188 222.863281 516.164062 222.578125 511.675781 C 222.503906 510.550781 222.460938 509.4375 222.4375 508.332031 C 222.425781 507.78125 222.417969 507.226562 222.417969 506.683594 C 222.417969 506.683594 222.421875 505.089844 222.421875 505.089844 C 222.421875 505.089844 222.457031 499.023438 222.457031 499.023438 C 222.457031 499.023438 222.539062 486.894531 222.539062 486.894531 C 223.027344 422.195312 223.710938 357.5 225.144531 292.804688 C 225.203125 290.070312 227.46875 287.90625 230.203125 287.964844 C 232.859375 288.023438 234.980469 290.175781 235.042969 292.804688 C 236.476562 357.5 237.15625 422.195312 237.648438 486.894531 C 237.648438 486.894531 237.726562 499.023438 237.726562 499.023438 C 237.726562 499.023438 237.765625 505.089844 237.765625 505.089844 C 237.765625 505.089844 237.78125 506.527344 237.78125 506.527344 C 237.785156 506.992188 237.800781 507.453125 237.816406 507.910156 C 237.847656 508.828125 237.894531 509.734375 237.964844 510.625 C 238.230469 514.195312 238.820312 517.550781 239.859375 520.492188 C 240.914062 523.425781 242.394531 525.929688 244.421875 528.101562 C 246.449219 530.265625 249.027344 532.140625 252.007812 533.738281 C 254.976562 535.339844 258.339844 536.632812 261.839844 537.734375 C 268.882812 539.917969 276.511719 541.296875 284.246094 542.324219 C 299.757812 544.339844 315.75 544.988281 331.75 545.34375 C 339.761719 545.523438 347.769531 545.585938 355.835938 545.582031 C 355.835938 545.582031 380.101562 545.605469 380.101562 545.605469 C 380.101562 545.605469 428.632812 545.648438 428.632812 545.648438 C 428.632812 545.648438 477.164062 545.898438 477.164062 545.898438 C 509.519531 545.988281 541.875 546.425781 574.226562 546.714844 C 574.226562 546.714844 598.492188 547.066406 598.492188 547.066406 C 598.492188 547.066406 604.558594 547.152344 604.558594 547.152344 C 604.558594 547.152344 605.9375 547.164062 605.9375 547.164062 C 606.371094 547.167969 606.792969 547.144531 607.222656 547.140625 C 608.074219 547.09375 608.921875 547.046875 609.753906 546.941406 C 613.089844 546.554688 616.25 545.648438 619.136719 544.15625 C 624.917969 541.207031 629.601562 535.855469 633.066406 529.421875 C 636.546875 522.976562 638.917969 515.617188 640.664062 508.058594 C 644.089844 492.867188 645.34375 476.867188 645.824219 460.878906 C 645.824219 460.878906 646.511719 436.636719 646.511719 436.636719 C 646.765625 428.550781 647.007812 420.464844 647.308594 412.378906 C 647.367188 410.820312 648.675781 409.605469 650.230469 409.664062 C 651.710938 409.71875 652.886719 410.921875 652.941406 412.378906 Z M 652.941406 412.378906 " fill-opacity="1" fill-rule="nonzero"/><path fill="#000000" d="M 500.371094 553.597656 C 500.371094 553.597656 504.777344 618.191406 504.777344 618.191406 C 504.777344 618.191406 501.640625 613.796875 501.640625 613.796875 C 501.640625 613.796875 578.851562 644.28125 578.851562 644.28125 C 580.5625 644.957031 581.589844 646.617188 581.539062 648.351562 C 581.539062 648.351562 581.535156 648.410156 581.535156 648.410156 C 581.535156 648.410156 580.285156 688.9375 580.285156 688.9375 C 580.285156 688.9375 580.285156 689.007812 580.285156 689.007812 C 580.203125 691.679688 577.972656 693.777344 575.300781 693.695312 C 553.441406 693.023438 531.582031 692.746094 509.722656 692.695312 C 487.863281 692.644531 466.007812 692.816406 444.148438 692.9375 C 444.148438 692.9375 411.363281 693.210938 411.363281 693.210938 C 411.363281 693.210938 378.578125 693.621094 378.578125 693.621094 C 367.648438 693.761719 356.722656 693.871094 345.792969 694.097656 C 334.863281 694.296875 323.9375 694.46875 313.007812 694.738281 C 313.007812 694.738281 312.8125 694.746094 312.8125 694.746094 C 310.152344 694.808594 307.945312 692.710938 307.878906 690.054688 C 307.875 689.917969 307.878906 689.773438 307.886719 689.640625 C 307.886719 689.640625 310.171875 652.496094 310.171875 652.496094 C 310.171875 652.496094 310.175781 652.429688 310.175781 652.429688 C 310.246094 651.261719 310.980469 650.296875 311.984375 649.863281 C 311.984375 649.863281 384.421875 618.914062 384.421875 618.914062 C 384.421875 618.914062 380.613281 624.179688 380.613281 624.179688 C 380.613281 624.179688 386.910156 553.574219 386.910156 553.574219 C 387.050781 552.023438 388.417969 550.875 389.96875 551.015625 C 391.433594 551.144531 392.535156 552.382812 392.539062 553.828125 C 392.539062 553.828125 392.453125 624.714844 392.453125 624.714844 C 392.449219 627.15625 390.871094 629.230469 388.675781 629.972656 C 388.675781 629.972656 388.644531 629.980469 388.644531 629.980469 C 388.644531 629.980469 313.992188 655.125 313.992188 655.125 C 313.992188 655.125 315.808594 652.496094 315.808594 652.496094 C 315.808594 652.496094 318.089844 689.640625 318.089844 689.640625 C 318.089844 689.640625 312.96875 684.539062 312.96875 684.539062 C 323.902344 684.730469 334.828125 684.824219 345.757812 684.945312 C 356.6875 685.085938 367.617188 685.117188 378.546875 685.179688 C 378.546875 685.179688 411.335938 685.351562 411.335938 685.351562 C 411.335938 685.351562 444.121094 685.386719 444.121094 685.386719 C 465.980469 685.347656 487.839844 685.359375 509.695312 685.148438 C 531.550781 684.941406 553.410156 684.503906 575.265625 683.675781 C 575.265625 683.675781 570.277344 688.429688 570.277344 688.429688 C 570.277344 688.429688 573.15625 647.984375 573.15625 647.984375 C 573.15625 647.984375 575.835938 652.113281 575.835938 652.113281 C 575.835938 652.113281 498.121094 622.9375 498.121094 622.9375 C 498.121094 622.9375 498.015625 622.898438 498.015625 622.898438 C 496.148438 622.199219 494.996094 620.421875 494.984375 618.542969 C 494.984375 618.542969 494.738281 553.800781 494.738281 553.800781 C 494.734375 552.246094 495.988281 550.976562 497.546875 550.972656 C 499.039062 550.964844 500.265625 552.132812 500.371094 553.597656 Z M 500.371094 553.597656 " fill-opacity="1" fill-rule="nonzero"/><path stroke-linecap="round" transform="matrix(0.704348, 0, 0, 0.704218, 437.821181, 496.182883)" fill="none" stroke-linejoin="round" d="M -294.921688 -5.690146 C -294.921688 -5.690146 294.924766 5.692165 294.924766 5.692165 " stroke="#000000" stroke-width="14.723" stroke-opacity="1" stroke-miterlimit="4"/><path stroke-linecap="round" transform="matrix(0.704348, 0, 0, 0.704218, 24.652174, 0.347442)" fill="none" stroke-linejoin="round" d="M 544.13175 363.446592 C 544.13175 363.446592 768.275288 363.446592 768.275288 363.446592 " stroke="#000000" stroke-width="14.723" stroke-opacity="1" stroke-miterlimit="4"/><path fill="#000000" d="M 526.175781 464.070312 C 525.089844 453.917969 523.863281 443.585938 522.789062 433.046875 C 521.707031 422.515625 520.867188 411.878906 520.167969 401.429688 C 520.167969 401.429688 521.15625 403.386719 521.15625 403.386719 C 519.644531 402.140625 518.3125 400.933594 516.941406 399.664062 C 515.589844 398.402344 514.265625 397.113281 512.96875 395.804688 C 510.371094 393.179688 507.875 390.457031 505.484375 387.636719 C 503.089844 384.820312 500.832031 381.882812 498.671875 378.863281 C 496.507812 375.847656 494.476562 372.726562 492.601562 369.5 C 491.632812 367.902344 490.769531 366.238281 489.875 364.59375 C 489.046875 362.910156 488.171875 361.253906 487.429688 359.523438 C 486.632812 357.816406 485.953125 356.054688 485.253906 354.300781 C 484.910156 353.421875 484.621094 352.519531 484.300781 351.628906 C 484.300781 351.628906 483.832031 350.289062 483.832031 350.289062 C 483.6875 349.835938 483.554688 349.378906 483.417969 348.925781 C 482.25 345.3125 481.457031 341.566406 480.804688 337.792969 C 480.550781 335.890625 480.25 333.996094 480.144531 332.070312 C 480.085938 331.109375 479.957031 330.152344 479.957031 329.1875 C 479.957031 329.1875 479.90625 326.292969 479.90625 326.292969 C 479.863281 325.324219 479.960938 324.359375 479.988281 323.390625 C 480.042969 322.433594 480.042969 321.441406 480.148438 320.507812 C 480.332031 318.625 480.484375 316.742188 480.789062 314.863281 C 481.296875 311.101562 482.089844 307.359375 483.097656 303.660156 C 485.128906 296.273438 488.207031 289.050781 492.503906 282.519531 C 494.632812 279.242188 497.046875 276.132812 499.742188 273.285156 C 502.429688 270.429688 505.34375 267.777344 508.484375 265.425781 C 511.628906 263.089844 514.953125 261.015625 518.394531 259.191406 C 521.839844 257.359375 525.429688 255.871094 529.066406 254.558594 C 536.359375 251.972656 543.917969 250.417969 551.484375 249.578125 C 555.269531 249.1875 559.0625 248.953125 562.847656 248.894531 C 562.847656 248.894531 568.226562 248.800781 568.226562 248.800781 C 568.226562 248.800781 573.585938 248.675781 573.585938 248.675781 C 587.921875 248.269531 602.398438 247.617188 616.90625 247.273438 C 631.421875 246.933594 645.992188 246.785156 660.617188 247.414062 C 675.242188 248.015625 689.933594 249.175781 704.628906 251.890625 C 711.96875 253.257812 719.316406 255.019531 726.578125 257.5625 C 726.578125 257.5625 729.296875 258.523438 729.296875 258.523438 C 729.296875 258.523438 731.992188 259.648438 731.992188 259.648438 C 732.890625 260.035156 733.792969 260.378906 734.679688 260.804688 C 734.679688 260.804688 737.335938 262.121094 737.335938 262.121094 C 739.117188 262.9375 740.828125 264.046875 742.5625 265.042969 C 743.4375 265.519531 744.257812 266.164062 745.097656 266.734375 C 745.929688 267.332031 746.785156 267.894531 747.589844 268.523438 C 754.003906 273.578125 759.246094 279.882812 763.265625 286.730469 C 763.265625 286.730469 764.035156 288.007812 764.035156 288.007812 C 764.035156 288.007812 764.71875 289.328125 764.71875 289.328125 C 764.71875 289.328125 766.070312 291.96875 766.070312 291.96875 C 766.070312 291.96875 766.410156 292.628906 766.410156 292.628906 C 766.410156 292.628906 766.703125 293.308594 766.703125 293.308594 C 766.703125 293.308594 767.289062 294.664062 767.289062 294.664062 C 767.289062 294.664062 768.453125 297.375 768.453125 297.375 C 769.109375 299.222656 769.804688 301.058594 770.394531 302.921875 C 770.394531 302.921875 771.207031 305.734375 771.207031 305.734375 C 771.476562 306.671875 771.757812 307.609375 771.949219 308.5625 C 773.777344 316.132812 774.621094 323.882812 774.53125 331.605469 C 774.449219 339.332031 773.476562 347.039062 771.574219 354.550781 C 769.671875 362.054688 766.832031 369.371094 762.902344 376.160156 C 758.996094 382.949219 754 389.210938 747.984375 394.402344 C 741.996094 399.605469 735.007812 403.710938 727.558594 406.382812 C 726.648438 406.777344 725.683594 406.996094 724.742188 407.296875 C 724.742188 407.296875 721.90625 408.136719 721.90625 408.136719 C 721.90625 408.136719 721.195312 408.34375 721.195312 408.34375 C 721.195312 408.34375 720.507812 408.503906 720.507812 408.503906 C 720.507812 408.503906 719.140625 408.820312 719.140625 408.820312 C 719.140625 408.820312 716.402344 409.445312 716.402344 409.445312 C 714.578125 409.859375 712.746094 410.171875 710.914062 410.539062 C 709.085938 410.898438 707.25 411.148438 705.421875 411.457031 C 690.746094 413.640625 676.0625 414.332031 661.453125 414.363281 C 646.839844 414.3125 632.289062 413.503906 617.808594 412.191406 C 603.320312 410.824219 588.949219 409.03125 574.578125 406.460938 C 574.578125 406.460938 574.574219 406.460938 574.574219 406.460938 C 574.574219 406.460938 577.175781 405.476562 577.175781 405.476562 C 568.914062 415.425781 560.429688 425.445312 551.8125 435.238281 C 543.195312 445.042969 534.574219 454.585938 526.175781 464.070312 Z M 527.910156 458.710938 C 535.5 448.953125 542.867188 439.261719 550.242188 429.828125 C 557.613281 420.386719 565.113281 411.164062 572.84375 401.875 C 573.496094 401.089844 574.488281 400.75 575.433594 400.890625 C 575.433594 400.890625 575.445312 400.894531 575.445312 400.894531 C 582.523438 401.707031 589.714844 402.378906 596.863281 402.925781 C 604.023438 403.503906 611.195312 403.949219 618.363281 404.277344 C 632.695312 404.960938 647.035156 405.167969 661.304688 404.707031 C 675.5625 404.242188 689.785156 403.078125 703.628906 400.609375 C 705.347656 400.273438 707.085938 400 708.792969 399.621094 C 710.496094 399.238281 712.21875 398.90625 713.90625 398.484375 C 713.90625 398.484375 716.429688 397.84375 716.429688 397.84375 C 716.429688 397.84375 717.695312 397.523438 717.695312 397.523438 C 717.695312 397.523438 718.324219 397.363281 718.324219 397.363281 C 718.324219 397.363281 718.90625 397.171875 718.90625 397.171875 C 718.90625 397.171875 721.246094 396.417969 721.246094 396.417969 C 722.019531 396.152344 722.824219 395.964844 723.5625 395.613281 C 729.65625 393.265625 735.242188 389.800781 740.050781 385.429688 C 744.859375 381.054688 748.917969 375.824219 752.144531 370.066406 C 755.378906 364.3125 757.738281 358.007812 759.285156 351.5 C 762.398438 338.476562 762.3125 324.609375 759.191406 311.683594 C 759.027344 310.863281 758.777344 310.074219 758.542969 309.28125 C 758.542969 309.28125 757.847656 306.890625 757.847656 306.890625 C 757.335938 305.320312 756.742188 303.78125 756.191406 302.226562 C 756.191406 302.226562 755.203125 299.96875 755.203125 299.96875 C 755.203125 299.96875 754.710938 298.839844 754.710938 298.839844 C 754.710938 298.839844 754.46875 298.277344 754.46875 298.277344 C 754.46875 298.277344 754.183594 297.734375 754.183594 297.734375 C 754.183594 297.734375 753.058594 295.5625 753.058594 295.5625 C 753.058594 295.5625 752.496094 294.476562 752.496094 294.476562 C 752.496094 294.476562 751.859375 293.441406 751.859375 293.441406 C 748.546875 287.867188 744.359375 282.925781 739.40625 279.050781 C 734.484375 275.273438 728.445312 272.457031 722.105469 270.195312 C 715.742188 267.9375 709.015625 266.277344 702.171875 264.976562 C 688.457031 262.382812 674.285156 261.183594 660.0625 260.546875 C 652.949219 260.21875 645.808594 260.085938 638.652344 260.003906 C 631.496094 259.925781 624.324219 259.949219 617.140625 260.039062 C 602.769531 260.210938 588.378906 260.691406 573.839844 260.929688 C 573.839844 260.929688 568.371094 260.988281 568.371094 260.988281 C 568.371094 260.988281 562.917969 260.980469 562.917969 260.980469 C 559.480469 260.964844 556.058594 261.109375 552.65625 261.394531 C 545.859375 262.011719 539.15625 263.265625 532.789062 265.386719 C 529.613281 266.464844 526.488281 267.683594 523.527344 269.191406 C 520.558594 270.6875 517.710938 272.390625 515.019531 274.304688 C 509.691406 278.195312 504.929688 282.867188 501.195312 288.351562 C 497.398438 293.789062 494.5625 299.933594 492.589844 306.40625 C 491.613281 309.644531 490.808594 312.960938 490.261719 316.339844 C 489.945312 318.023438 489.75 319.730469 489.519531 321.433594 C 489.390625 322.292969 489.375 323.109375 489.292969 323.949219 C 489.246094 324.785156 489.117188 325.617188 489.132812 326.460938 C 489.132812 326.460938 489.089844 328.976562 489.089844 328.976562 C 489.054688 329.820312 489.144531 330.660156 489.164062 331.5 C 489.195312 333.1875 489.410156 334.867188 489.574219 336.550781 C 490.039062 339.90625 490.617188 343.265625 491.5625 346.5625 C 491.671875 346.976562 491.773438 347.390625 491.890625 347.804688 C 491.890625 347.804688 492.273438 349.03125 492.273438 349.03125 C 492.539062 349.847656 492.769531 350.675781 493.058594 351.488281 C 493.640625 353.109375 494.203125 354.738281 494.878906 356.332031 C 495.496094 357.945312 496.242188 359.515625 496.9375 361.101562 C 497.710938 362.660156 498.441406 364.238281 499.285156 365.769531 C 502.527344 371.945312 506.449219 377.808594 510.722656 383.414062 C 512.863281 386.214844 515.117188 388.9375 517.472656 391.566406 C 518.648438 392.882812 519.847656 394.175781 521.074219 395.445312 C 522.289062 396.691406 523.578125 397.972656 524.796875 399.085938 C 524.796875 399.085938 524.796875 399.089844 524.796875 399.089844 C 524.796875 399.089844 524.8125 399.101562 524.8125 399.101562 C 525.40625 399.613281 525.738281 400.324219 525.789062 401.046875 C 526.445312 410.648438 526.957031 420.0625 527.230469 429.582031 C 527.515625 439.09375 527.640625 448.808594 527.910156 458.710938 Z M 527.910156 458.710938 " fill-opacity="1" fill-rule="nonzero"/><path fill="#ffffff" d="M 691.78125 319.246094 C 697.59375 314.699219 715.03125 308.886719 725.140625 319.246094 C 735.25 329.605469 731.585938 353.863281 714.777344 356.894531 C 697.972656 359.929688 685.335938 349.695312 684.957031 336.808594 C 684.578125 323.921875 691.78125 319.246094 691.78125 319.246094 Z M 691.78125 319.246094 " fill-opacity="1" fill-rule="nonzero"/><path fill="#000000" d="M 690.132812 316.941406 C 690.707031 316.523438 691.488281 316.007812 692.1875 315.578125 C 692.898438 315.140625 693.613281 314.726562 694.339844 314.355469 C 695.789062 313.605469 697.273438 312.964844 698.792969 312.414062 C 701.828125 311.320312 705.003906 310.574219 708.292969 310.289062 C 711.578125 310.015625 715.011719 310.1875 718.382812 311.152344 C 721.738281 312.101562 725.003906 313.875 727.601562 316.355469 C 728.921875 317.609375 730.089844 319.054688 731.042969 320.578125 C 731.988281 322.109375 732.734375 323.726562 733.332031 325.378906 C 734.503906 328.6875 735 332.144531 734.972656 335.574219 C 734.976562 337.296875 734.78125 339.007812 734.484375 340.707031 C 734.195312 342.410156 733.734375 344.089844 733.144531 345.734375 C 732.570312 347.390625 731.785156 348.988281 730.859375 350.519531 C 730.414062 351.292969 729.875 352.023438 729.351562 352.761719 C 728.777344 353.46875 728.214844 354.183594 727.558594 354.835938 C 726.289062 356.164062 724.847656 357.375 723.234375 358.332031 C 721.632812 359.300781 719.914062 360.105469 718.121094 360.613281 C 718.121094 360.613281 717.453125 360.816406 717.453125 360.816406 C 717.453125 360.816406 716.777344 360.972656 716.777344 360.972656 C 716.332031 361.066406 715.863281 361.183594 715.433594 361.253906 C 714.597656 361.367188 713.761719 361.472656 712.929688 361.570312 C 712.097656 361.699219 711.246094 361.695312 710.398438 361.722656 C 709.546875 361.738281 708.707031 361.804688 707.851562 361.71875 C 701.054688 361.476562 694.09375 358.894531 688.992188 354.015625 C 686.441406 351.589844 684.417969 348.585938 683.152344 345.289062 C 682.839844 344.46875 682.609375 343.613281 682.347656 342.777344 C 682.109375 341.929688 682 341.050781 681.832031 340.195312 C 681.601562 338.457031 681.539062 336.679688 681.632812 335.078125 C 681.796875 331.789062 682.386719 328.429688 683.75 325.277344 C 684.402344 323.695312 685.253906 322.179688 686.292969 320.773438 C 687.347656 319.363281 688.503906 318.082031 690.132812 316.941406 Z M 693.425781 321.554688 C 692.640625 322.164062 691.792969 323.152344 691.136719 324.175781 C 690.460938 325.210938 689.898438 326.34375 689.484375 327.546875 C 688.601562 329.929688 688.277344 332.566406 688.300781 335.226562 C 688.300781 336.601562 688.453125 337.808594 688.683594 339.015625 C 688.855469 339.605469 688.953125 340.214844 689.164062 340.789062 C 689.398438 341.355469 689.585938 341.9375 689.839844 342.488281 C 690.859375 344.707031 692.398438 346.667969 694.273438 348.242188 C 698.042969 351.398438 703.023438 353.023438 708.121094 353.066406 C 708.753906 353.128906 709.402344 353.039062 710.042969 353.015625 C 710.683594 352.976562 711.324219 352.976562 711.96875 352.847656 C 712.609375 352.746094 713.25 352.652344 713.894531 352.570312 C 714.199219 352.515625 714.453125 352.441406 714.738281 352.382812 C 714.738281 352.382812 715.152344 352.289062 715.152344 352.289062 C 715.152344 352.289062 715.550781 352.15625 715.550781 352.15625 C 717.695312 351.503906 719.585938 350.300781 721.179688 348.667969 C 724.375 345.394531 726.222656 340.375 726.460938 335.339844 C 726.605469 332.816406 726.316406 330.269531 725.632812 327.914062 C 725.28125 326.738281 724.839844 325.605469 724.277344 324.5625 C 723.699219 323.527344 723.039062 322.589844 722.257812 321.734375 C 720.644531 319.972656 718.605469 318.671875 716.28125 317.832031 C 713.957031 316.988281 711.34375 316.65625 708.6875 316.746094 C 706.027344 316.828125 703.308594 317.300781 700.6875 318.089844 C 699.378906 318.488281 698.09375 318.964844 696.863281 319.515625 C 696.246094 319.792969 695.648438 320.09375 695.074219 320.410156 C 694.496094 320.75 694.035156 321.0625 693.425781 321.554688 Z M 693.425781 321.554688 " fill-opacity="1" fill-rule="nonzero"/><path fill="#ffffff" d="M 610.230469 319.246094 C 616.046875 314.699219 633.484375 308.886719 643.59375 319.246094 C 653.703125 329.605469 650.035156 353.863281 633.230469 356.894531 C 616.425781 359.929688 603.789062 349.695312 603.410156 336.808594 C 603.03125 323.921875 610.230469 319.246094 610.230469 319.246094 Z M 610.230469 319.246094 " fill-opacity="1" fill-rule="nonzero"/><path fill="#000000" d="M 608.347656 316.605469 C 608.921875 316.195312 609.734375 315.679688 610.460938 315.277344 C 611.203125 314.871094 611.945312 314.496094 612.699219 314.164062 C 614.199219 313.492188 615.722656 312.9375 617.265625 312.480469 C 620.359375 311.570312 623.523438 310.964844 626.773438 310.746094 C 630.015625 310.523438 633.382812 310.695312 636.671875 311.660156 C 639.945312 312.613281 643.121094 314.335938 645.667969 316.742188 C 646.960938 317.960938 648.097656 319.359375 649.046875 320.839844 C 649.992188 322.324219 650.746094 323.902344 651.355469 325.515625 C 652.554688 328.757812 653.132812 332.160156 653.164062 335.566406 C 653.199219 337.273438 653.066406 338.984375 652.808594 340.683594 C 652.5625 342.382812 652.144531 344.074219 651.597656 345.734375 C 651.0625 347.402344 650.332031 349.03125 649.433594 350.59375 C 649.003906 351.382812 648.484375 352.132812 647.972656 352.890625 C 647.410156 353.617188 646.859375 354.355469 646.214844 355.03125 C 644.964844 356.410156 643.515625 357.660156 641.894531 358.675781 C 640.289062 359.695312 638.546875 360.558594 636.726562 361.117188 C 636.726562 361.117188 636.046875 361.34375 636.046875 361.34375 C 636.046875 361.34375 635.359375 361.515625 635.359375 361.515625 C 634.90625 361.625 634.425781 361.753906 633.988281 361.828125 C 633.988281 361.828125 631.449219 362.195312 631.449219 362.195312 C 630.609375 362.34375 629.738281 362.359375 628.875 362.40625 C 628.011719 362.4375 627.152344 362.523438 626.277344 362.453125 C 619.335938 362.359375 612.089844 359.796875 606.789062 354.730469 C 606.160156 354.066406 605.519531 353.410156 604.917969 352.726562 C 604.917969 352.726562 603.269531 350.53125 603.269531 350.53125 C 602.792969 349.742188 602.339844 348.945312 601.890625 348.148438 C 601.496094 347.324219 601.144531 346.472656 600.789062 345.632812 C 600.472656 344.777344 600.238281 343.886719 599.980469 343.011719 C 599.75 342.132812 599.644531 341.21875 599.488281 340.328125 C 599.398438 339.882812 599.386719 339.429688 599.363281 338.980469 C 599.363281 338.980469 599.304688 337.625 599.304688 337.625 C 599.304688 337.625 599.277344 336.953125 599.277344 336.953125 C 599.277344 336.953125 599.308594 336.320312 599.308594 336.320312 C 599.308594 336.320312 599.375 335.058594 599.375 335.058594 C 599.621094 331.707031 600.285156 328.289062 601.726562 325.085938 C 602.421875 323.484375 603.300781 321.941406 604.375 320.511719 C 605.464844 319.078125 606.648438 317.777344 608.347656 316.605469 Z M 612.117188 321.886719 C 611.398438 322.46875 610.582031 323.4375 609.960938 324.433594 C 609.316406 325.445312 608.78125 326.554688 608.414062 327.738281 C 607.605469 330.070312 607.359375 332.648438 607.460938 335.238281 C 607.5 336.59375 607.675781 337.738281 607.929688 338.875 C 608.109375 339.4375 608.214844 340.007812 608.433594 340.550781 C 608.675781 341.082031 608.855469 341.628906 609.109375 342.148438 C 610.128906 344.214844 611.59375 346.050781 613.378906 347.527344 C 615.15625 349.015625 617.234375 350.164062 619.472656 350.964844 C 621.710938 351.769531 624.109375 352.261719 626.597656 352.332031 C 627.210938 352.410156 627.839844 352.339844 628.464844 352.332031 C 629.09375 352.308594 629.71875 352.332031 630.351562 352.222656 C 630.351562 352.222656 632.246094 351.992188 632.246094 351.992188 C 632.542969 351.945312 632.785156 351.882812 633.058594 351.835938 C 633.058594 351.835938 633.460938 351.761719 633.460938 351.761719 C 633.460938 351.761719 633.847656 351.652344 633.847656 351.652344 C 635.933594 351.105469 637.804688 350.015625 639.429688 348.472656 C 642.695312 345.394531 644.777344 340.433594 645.171875 335.34375 C 645.378906 332.796875 645.167969 330.199219 644.511719 327.769531 C 644.175781 326.5625 643.738281 325.386719 643.179688 324.296875 C 642.59375 323.21875 641.90625 322.238281 641.09375 321.34375 C 637.789062 317.652344 632.523438 315.992188 627.109375 316.289062 C 624.40625 316.4375 621.683594 317.050781 619.117188 318.023438 C 617.835938 318.507812 616.585938 319.070312 615.40625 319.707031 C 614.8125 320.019531 614.25 320.363281 613.707031 320.710938 C 613.15625 321.078125 612.726562 321.390625 612.117188 321.886719 Z M 612.117188 321.886719 " fill-opacity="1" fill-rule="nonzero"/><path fill="#ffffff" d="M 523.851562 319.246094 C 529.664062 314.699219 547.101562 308.886719 557.210938 319.246094 C 567.320312 329.605469 563.65625 353.863281 546.847656 356.894531 C 530.042969 359.929688 517.40625 349.695312 517.027344 336.808594 C 516.648438 323.921875 523.851562 319.246094 523.851562 319.246094 Z M 523.851562 319.246094 " fill-opacity="1" fill-rule="nonzero"/><path fill="#000000" d="M 522.183594 316.910156 C 522.75 316.484375 523.535156 315.96875 524.246094 315.554688 C 524.96875 315.136719 525.699219 314.75 526.4375 314.40625 C 527.914062 313.71875 529.394531 313.09375 530.921875 312.585938 C 533.96875 311.578125 537.117188 310.839844 540.386719 310.605469 C 543.640625 310.359375 547.027344 310.582031 550.320312 311.578125 C 553.59375 312.5625 556.761719 314.324219 559.261719 316.765625 C 560.535156 318 561.652344 319.410156 562.574219 320.894531 C 563.484375 322.390625 564.199219 323.972656 564.769531 325.585938 C 565.894531 328.820312 566.367188 332.199219 566.320312 335.554688 C 566.3125 337.234375 566.136719 338.910156 565.847656 340.570312 C 565.570312 342.234375 565.121094 343.875 564.550781 345.484375 C 563.988281 347.097656 563.230469 348.660156 562.335938 350.152344 C 561.449219 351.652344 560.386719 353.078125 559.144531 354.367188 C 556.699219 356.964844 553.476562 358.96875 550.011719 360.011719 C 550.011719 360.011719 549.363281 360.214844 549.363281 360.214844 C 549.363281 360.214844 548.707031 360.367188 548.707031 360.367188 C 548.273438 360.464844 547.820312 360.582031 547.398438 360.652344 C 547.398438 360.652344 544.933594 360.976562 544.933594 360.976562 C 544.117188 361.113281 543.28125 361.117188 542.445312 361.152344 C 541.609375 361.171875 540.78125 361.25 539.941406 361.171875 C 533.246094 360.992188 526.378906 358.523438 521.300781 353.753906 C 518.765625 351.390625 516.714844 348.457031 515.441406 345.199219 C 515.125 344.386719 514.890625 343.542969 514.621094 342.714844 C 514.375 341.882812 514.261719 341.011719 514.085938 340.160156 C 513.84375 338.441406 513.761719 336.679688 513.84375 335.078125 C 513.992188 331.804688 514.539062 328.453125 515.875 325.296875 C 516.511719 323.714844 517.347656 322.191406 518.375 320.777344 C 519.414062 319.359375 520.554688 318.066406 522.183594 316.910156 Z M 525.519531 321.582031 C 524.730469 322.179688 523.871094 323.152344 523.199219 324.171875 C 522.511719 325.195312 521.933594 326.324219 521.503906 327.527344 C 520.59375 329.90625 520.226562 332.550781 520.230469 335.222656 C 520.222656 336.601562 520.351562 337.824219 520.574219 339.046875 C 520.738281 339.644531 520.828125 340.261719 521.035156 340.847656 C 521.265625 341.421875 521.445312 342.015625 521.695312 342.582031 C 522.703125 344.839844 524.21875 346.867188 526.109375 348.503906 C 527.992188 350.144531 530.222656 351.394531 532.617188 352.238281 C 535.007812 353.085938 537.5625 353.597656 540.175781 353.613281 C 540.820312 353.683594 541.480469 353.605469 542.136719 353.585938 C 542.792969 353.554688 543.449219 353.5625 544.105469 353.4375 C 544.105469 353.4375 546.074219 353.167969 546.074219 353.167969 C 546.386719 353.117188 546.65625 353.042969 546.953125 352.980469 C 546.953125 352.980469 547.386719 352.890625 547.386719 352.890625 C 547.386719 352.890625 547.804688 352.757812 547.804688 352.757812 C 548.9375 352.445312 549.988281 351.9375 550.988281 351.339844 C 551.996094 350.75 552.898438 349.988281 553.738281 349.140625 C 554.585938 348.300781 555.339844 347.335938 555.988281 346.277344 C 556.644531 345.230469 557.210938 344.101562 557.664062 342.910156 C 558.605469 340.546875 559.140625 337.957031 559.257812 335.359375 C 559.386719 332.757812 559.074219 330.136719 558.339844 327.703125 C 557.964844 326.492188 557.488281 325.320312 556.890625 324.242188 C 556.277344 323.171875 555.570312 322.199219 554.738281 321.320312 C 553.035156 319.523438 550.894531 318.207031 548.488281 317.402344 C 546.085938 316.589844 543.425781 316.308594 540.738281 316.429688 C 538.050781 316.5625 535.3125 317.042969 532.703125 317.917969 C 531.402344 318.355469 530.113281 318.847656 528.910156 319.464844 C 528.300781 319.765625 527.722656 320.097656 527.160156 320.433594 C 526.59375 320.792969 526.136719 321.101562 525.519531 321.582031 Z M 525.519531 321.582031 " fill-opacity="1" fill-rule="nonzero"/><path stroke-linecap="butt" transform="matrix(0.704348, 0, 0, 0.704218, 242.080098, 214.646522)" fill-opacity="1" fill="#ff3953" fill-rule="nonzero" stroke-linejoin="miter" d="M -144.817628 -196.697149 C -144.817628 -196.697149 -28.60861 -204.934348 -28.60861 -204.934348 C -28.60861 -204.934348 161.921162 -200.818522 161.921162 -200.818522 C 161.921162 -200.818522 225.749052 -173.16705 225.749052 -173.16705 C 225.749052 -173.16705 265.280305 -126.156774 265.280305 -126.156774 C 265.280305 -126.156774 280.964141 -63.498594 280.964141 -63.498594 C 280.964141 -63.498594 271.569368 -7.052982 271.569368 -7.052982 C 271.569368 -7.052982 235.116095 56.0545 235.116095 56.0545 C 235.116095 56.0545 204.535942 88.565088 204.535942 88.565088 C 204.535942 88.565088 196.67184 204.934241 196.67184 204.934241 C 196.67184 204.934241 101.997594 93.657174 101.997594 93.657174 C 101.997594 93.657174 -50.869896 105.117142 -50.869896 105.117142 C -50.869896 105.117142 -144.817628 101.489447 -144.817628 101.489447 C -144.817628 101.489447 -215.494718 79.828665 -215.494718 79.828665 C -215.494718 79.828665 -257.582636 38.892283 -257.582636 38.892283 C -257.582636 38.892283 -280.964197 -28.996657 -280.964197 -28.996657 C -280.964197 -28.996657 -280.964197 -87.178461 -280.964197 -87.178461 C -280.964197 -87.178461 -257.105688 -139.047852 -257.105688 -139.047852 C -257.105688 -139.047852 -222.35501 -172.074304 -222.35501 -172.074304 C -222.35501 -172.074304 -144.817628 -196.697149 -144.817628 -196.697149 Z M -144.817628 -196.697149 " stroke="#000000" stroke-width="1" stroke-opacity="1" stroke-miterlimit="10"/><path stroke-linecap="butt" transform="matrix(0.704348, 0, 0, 0.704218, 153.244229, 182.208848)" fill-opacity="1" fill="#ffffff" fill-rule="nonzero" stroke-linejoin="miter" d="M -2.947778 -31.037683 C -2.947778 -31.037683 19.296871 -31.037683 19.296871 -31.037683 C 19.296871 -31.037683 31.497875 -5.954442 31.497875 -5.954442 C 31.497875 -5.954442 23.600498 25.618713 23.600498 25.618713 C 23.600498 25.618713 -2.947778 31.038069 -2.947778 31.038069 C -2.947778 31.038069 -23.761582 23.466502 -23.761582 23.466502 C -23.761582 23.466502 -31.498127 8.395479 -31.498127 8.395479 C -31.498127 8.395479 -28.065209 -15.999942 -28.065209 -15.999942 C -28.065209 -15.999942 -2.947778 -31.037683 -2.947778 -31.037683 Z M -2.947778 -31.037683 " stroke="#000000" stroke-width="1" stroke-opacity="1" stroke-miterlimit="10"/><path stroke-linecap="butt" transform="matrix(0.704348, 0, 0, 0.704218, 240.126231, 182.323633)" fill-opacity="1" fill="#ffffff" fill-rule="nonzero" stroke-linejoin="miter" d="M 2.133427 -31.200679 C 2.133427 -31.200679 30.8557 -21.188461 30.8557 -21.188461 C 30.8557 -21.188461 32.292091 8.953585 32.292091 8.953585 C 32.292091 8.953585 20.812056 29.044584 20.812056 29.044584 C 20.812056 29.044584 2.133427 31.202342 2.133427 31.202342 C 2.133427 31.202342 -19.373615 24.024608 -19.373615 24.024608 C -19.373615 24.024608 -32.295588 0.0174723 -32.295588 0.0174723 C -32.295588 0.0174723 -30.371157 -15.447383 -30.371157 -15.447383 C -30.371157 -15.447383 2.133427 -31.200679 2.133427 -31.200679 Z M 2.133427 -31.200679 " stroke="#000000" stroke-width="1" stroke-opacity="1" stroke-miterlimit="10"/><path stroke-linecap="butt" transform="matrix(0.704348, 0, 0, 0.704218, 322.901207, 183.208136)" fill-opacity="1" fill="#ffffff" fill-rule="nonzero" stroke-linejoin="miter" d="M -16.33664 -29.622203 C -16.33664 -29.622203 17.016468 -29.622203 17.016468 -29.622203 C 17.016468 -29.622203 32.506198 -13.114524 32.506198 -13.114524 C 32.506198 -13.114524 26.721813 18.458631 26.721813 18.458631 C 26.721813 18.458631 13.805386 29.619065 13.805386 29.619065 C 13.805386 29.619065 -16.33664 29.619065 -16.33664 29.619065 C -16.33664 29.619065 -29.968489 14.154209 -29.968489 14.154209 C -29.968489 14.154209 -32.508517 -6.657892 -32.508517 -6.657892 C -32.508517 -6.657892 -16.33664 -29.622203 -16.33664 -29.622203 Z M -16.33664 -29.622203 " stroke="#000000" stroke-width="1" stroke-opacity="1" stroke-miterlimit="10"/><path fill="#000000" d="M 379.589844 358.472656 C 379.589844 358.472656 381.078125 317.351562 381.078125 317.351562 C 381.625 303.835938 382.40625 290.421875 383.332031 276.824219 C 383.386719 276.042969 383.753906 275.359375 384.300781 274.882812 C 384.300781 274.882812 384.324219 274.863281 384.324219 274.863281 C 386.089844 273.277344 387.898438 271.5 389.632812 269.75 C 391.371094 267.980469 393.074219 266.171875 394.746094 264.332031 C 398.085938 260.652344 401.289062 256.84375 404.332031 252.921875 C 407.371094 248.996094 410.285156 244.976562 413.011719 240.847656 C 414.390625 238.792969 415.679688 236.679688 416.976562 234.578125 C 418.210938 232.441406 419.480469 230.324219 420.621094 228.140625 C 421.824219 225.988281 422.871094 223.761719 423.976562 221.566406 C 424.976562 219.324219 426.046875 217.113281 426.933594 214.832031 C 427.90625 212.582031 428.714844 210.273438 429.554688 207.980469 C 429.964844 206.832031 430.300781 205.660156 430.679688 204.503906 C 430.679688 204.503906 431.234375 202.761719 431.234375 202.761719 C 431.40625 202.179688 431.550781 201.585938 431.710938 201 C 431.710938 201 432.648438 197.480469 432.648438 197.480469 C 432.648438 197.480469 433.414062 193.925781 433.414062 193.925781 C 433.695312 192.742188 433.878906 191.550781 434.070312 190.355469 C 434.246094 189.160156 434.488281 187.972656 434.617188 186.773438 C 434.863281 184.375 435.183594 181.980469 435.238281 179.574219 C 435.238281 179.574219 435.328125 177.773438 435.328125 177.773438 C 435.328125 177.773438 435.371094 176.875 435.371094 176.875 C 435.371094 176.875 435.363281 175.972656 435.363281 175.972656 C 435.363281 175.972656 435.324219 172.375 435.324219 172.375 C 435.324219 172.375 435.316406 171.476562 435.316406 171.476562 C 435.316406 171.476562 435.25 170.582031 435.25 170.582031 C 435.25 170.582031 435.117188 168.789062 435.117188 168.789062 C 435.117188 168.789062 434.988281 166.996094 434.988281 166.996094 C 434.949219 166.402344 434.898438 165.804688 434.8125 165.195312 C 434.5 162.777344 434.234375 160.351562 433.792969 157.960938 C 433.4375 155.550781 432.902344 153.1875 432.402344 150.816406 C 432.15625 149.628906 431.808594 148.46875 431.519531 147.296875 C 431.519531 147.296875 431.0625 145.539062 431.0625 145.539062 C 430.910156 144.957031 430.710938 144.386719 430.539062 143.808594 C 429.207031 139.167969 427.421875 134.695312 425.425781 130.347656 C 423.441406 125.992188 421.019531 121.863281 418.339844 117.941406 C 413.015625 110.054688 406.207031 103.292969 398.570312 97.6875 C 394.714844 94.925781 390.632812 92.46875 386.390625 90.308594 C 382.148438 88.136719 377.683594 86.378906 373.152344 84.828125 C 364.0625 81.769531 354.511719 79.953125 344.855469 79.046875 C 342.433594 78.863281 340.015625 78.640625 337.582031 78.570312 C 335.152344 78.433594 332.710938 78.433594 330.277344 78.410156 C 330.277344 78.410156 322.664062 78.40625 322.664062 78.40625 C 322.664062 78.40625 315.035156 78.308594 315.035156 78.308594 C 294.734375 77.941406 274.589844 77.230469 254.460938 76.960938 C 234.339844 76.679688 214.25 76.742188 194.261719 77.589844 C 174.289062 78.476562 154.363281 80.160156 134.972656 83.78125 C 125.296875 85.609375 115.761719 87.957031 106.675781 91.164062 C 97.617188 94.371094 88.953125 98.460938 81.757812 104.003906 C 74.523438 109.632812 68.414062 116.796875 63.679688 124.878906 C 61.296875 128.914062 59.234375 133.164062 57.480469 137.558594 C 55.734375 141.957031 54.304688 146.5 53.167969 151.125 C 48.65625 169.644531 48.621094 189.449219 53.128906 208.058594 C 55.382812 217.359375 58.785156 226.371094 63.429688 234.640625 C 65.746094 238.777344 68.367188 242.730469 71.28125 246.429688 C 74.191406 250.132812 77.378906 253.613281 80.878906 256.734375 C 87.855469 263.007812 95.960938 267.96875 104.757812 271.3125 C 106.953125 272.152344 109.195312 272.890625 111.464844 273.53125 C 112.566406 273.882812 113.820312 274.144531 114.992188 274.453125 C 114.992188 274.453125 118.570312 275.347656 118.570312 275.347656 C 120.960938 275.933594 123.386719 276.394531 125.796875 276.929688 C 127 277.203125 128.21875 277.410156 129.4375 277.632812 C 129.4375 277.632812 133.089844 278.292969 133.089844 278.292969 C 152.617188 281.691406 172.601562 283.226562 192.617188 283.789062 C 212.648438 284.332031 232.75 283.925781 252.828125 282.84375 C 262.867188 282.316406 272.90625 281.621094 282.929688 280.746094 C 292.949219 279.890625 302.996094 278.878906 312.925781 277.644531 C 312.925781 277.644531 312.929688 277.644531 312.929688 277.644531 C 312.929688 277.644531 312.933594 277.640625 312.933594 277.640625 C 313.945312 277.488281 314.917969 277.894531 315.527344 278.625 C 326.445312 291.75 337.136719 304.804688 347.695312 318.085938 C 347.695312 318.085938 379.589844 358.472656 379.589844 358.472656 Z M 381.324219 363.832031 C 369.738281 350.515625 357.929688 337.132812 346.125 323.496094 C 334.320312 309.863281 322.644531 296.011719 311.195312 282.226562 C 311.195312 282.226562 313.796875 283.210938 313.796875 283.210938 C 313.796875 283.210938 313.792969 283.210938 313.792969 283.210938 C 293.722656 286.613281 273.613281 288.984375 253.378906 290.757812 C 233.15625 292.46875 212.84375 293.476562 192.46875 293.445312 C 182.28125 293.398438 172.082031 293.082031 161.878906 292.410156 C 151.679688 291.734375 141.46875 290.722656 131.292969 289.144531 C 131.292969 289.144531 127.480469 288.515625 127.480469 288.515625 C 126.210938 288.308594 124.9375 288.109375 123.671875 287.84375 C 121.140625 287.328125 118.597656 286.886719 116.070312 286.308594 C 116.070312 286.308594 112.285156 285.425781 112.285156 285.425781 C 111.011719 285.117188 109.78125 284.882812 108.46875 284.496094 C 105.867188 283.804688 103.292969 283.007812 100.757812 282.082031 C 90.605469 278.417969 81.101562 272.8125 72.941406 265.707031 C 64.757812 258.613281 57.992188 250.023438 52.671875 240.730469 C 47.335938 231.429688 43.445312 221.402344 40.84375 211.105469 C 38.242188 200.804688 36.914062 190.214844 36.808594 179.613281 C 36.703125 169.007812 37.890625 158.375 40.402344 148.007812 C 41.664062 142.824219 43.253906 137.707031 45.214844 132.710938 C 47.191406 127.71875 49.53125 122.847656 52.269531 118.175781 C 57.707031 108.824219 64.871094 100.289062 73.574219 93.476562 C 77.960938 90.050781 82.675781 87.21875 87.480469 84.765625 C 92.296875 82.324219 97.226562 80.265625 102.214844 78.527344 C 112.199219 75.035156 122.351562 72.589844 132.523438 70.691406 C 152.882812 66.953125 173.332031 65.308594 193.707031 64.453125 C 214.089844 63.601562 234.425781 63.734375 254.695312 64.191406 C 274.964844 64.640625 295.195312 65.523438 315.289062 66.054688 C 315.289062 66.054688 322.808594 66.214844 322.808594 66.214844 C 322.808594 66.214844 330.347656 66.328125 330.347656 66.328125 C 332.960938 66.386719 335.574219 66.425781 338.1875 66.609375 C 340.800781 66.71875 343.410156 66.996094 346.023438 67.230469 C 356.453125 68.359375 366.855469 70.472656 376.871094 74 C 381.867188 75.785156 386.800781 77.8125 391.519531 80.3125 C 396.242188 82.796875 400.796875 85.625 405.109375 88.808594 C 409.402344 92.015625 413.402344 95.621094 417.085938 99.511719 C 417.988281 100.507812 418.929688 101.460938 419.789062 102.488281 C 419.789062 102.488281 422.355469 105.585938 422.355469 105.585938 C 423.96875 107.722656 425.597656 109.847656 427.03125 112.105469 C 429.957031 116.574219 432.566406 121.25 434.683594 126.125 C 436.808594 130.992188 438.671875 135.96875 440.03125 141.066406 C 440.207031 141.699219 440.410156 142.328125 440.566406 142.96875 C 440.566406 142.96875 441.023438 144.890625 441.023438 144.890625 C 441.316406 146.171875 441.667969 147.445312 441.910156 148.734375 C 442.40625 151.3125 442.929688 153.886719 443.265625 156.484375 C 443.691406 159.070312 443.914062 161.671875 444.179688 164.269531 C 444.257812 164.914062 444.296875 165.574219 444.324219 166.242188 C 444.324219 166.242188 444.421875 168.230469 444.421875 168.230469 C 444.421875 168.230469 444.519531 170.21875 444.519531 170.21875 C 444.519531 170.21875 444.5625 171.210938 444.5625 171.210938 C 444.5625 171.210938 444.550781 172.207031 444.550781 172.207031 C 444.550781 172.207031 444.496094 176.183594 444.496094 176.183594 C 444.496094 176.183594 444.480469 177.175781 444.480469 177.175781 C 444.480469 177.175781 444.40625 178.164062 444.40625 178.164062 C 444.40625 178.164062 444.261719 180.144531 444.261719 180.144531 C 444.128906 182.789062 443.722656 185.398438 443.386719 188.015625 C 443.210938 189.320312 442.921875 190.605469 442.691406 191.902344 C 442.453125 193.199219 442.21875 194.492188 441.882812 195.765625 C 441.882812 195.765625 440.957031 199.589844 440.957031 199.589844 C 440.957031 199.589844 439.855469 203.363281 439.855469 203.363281 C 439.667969 203.992188 439.492188 204.621094 439.292969 205.246094 C 439.292969 205.246094 438.65625 207.097656 438.65625 207.097656 C 438.21875 208.332031 437.824219 209.578125 437.355469 210.796875 C 436.402344 213.222656 435.472656 215.660156 434.386719 218.023438 C 433.371094 220.417969 432.171875 222.722656 431.042969 225.058594 C 429.8125 227.339844 428.632812 229.648438 427.304688 231.871094 C 426.039062 234.128906 424.644531 236.304688 423.285156 238.496094 C 421.867188 240.652344 420.457031 242.8125 418.957031 244.90625 C 415.984375 249.113281 412.867188 253.207031 409.570312 257.144531 C 406.273438 261.085938 402.832031 264.894531 399.246094 268.566406 C 397.453125 270.402344 395.628906 272.203125 393.765625 273.972656 C 391.878906 275.742188 390.023438 277.445312 387.964844 279.164062 C 387.964844 279.164062 388.953125 277.203125 388.953125 277.203125 C 387.984375 291.652344 386.871094 306.285156 385.523438 320.816406 C 384.179688 335.355469 382.679688 349.683594 381.324219 363.832031 Z M 381.324219 363.832031 " fill-opacity="1" fill-rule="nonzero"/><path fill="#000000" d="M 136.25 163.832031 C 136.824219 163.414062 137.605469 162.898438 138.304688 162.46875 C 139.015625 162.035156 139.730469 161.617188 140.457031 161.246094 C 141.90625 160.496094 143.390625 159.855469 144.910156 159.304688 C 147.945312 158.210938 151.121094 157.46875 154.410156 157.179688 C 157.695312 156.90625 161.128906 157.078125 164.5 158.042969 C 167.855469 158.992188 171.121094 160.769531 173.71875 163.25 C 175.039062 164.503906 176.207031 165.945312 177.160156 167.46875 C 178.105469 169 178.851562 170.617188 179.449219 172.269531 C 180.621094 175.578125 181.117188 179.035156 181.089844 182.46875 C 181.09375 184.1875 180.898438 185.902344 180.601562 187.601562 C 180.3125 189.300781 179.851562 190.980469 179.261719 192.628906 C 178.6875 194.28125 177.902344 195.878906 176.976562 197.410156 C 176.53125 198.183594 175.992188 198.917969 175.46875 199.652344 C 174.894531 200.359375 174.332031 201.078125 173.675781 201.730469 C 172.40625 203.054688 170.964844 204.265625 169.351562 205.222656 C 167.75 206.191406 166.03125 206.996094 164.238281 207.503906 C 164.238281 207.503906 163.570312 207.710938 163.570312 207.710938 C 163.570312 207.710938 162.894531 207.863281 162.894531 207.863281 C 162.449219 207.957031 161.980469 208.074219 161.550781 208.144531 C 160.714844 208.261719 159.882812 208.363281 159.046875 208.460938 C 158.214844 208.589844 157.363281 208.585938 156.515625 208.617188 C 155.664062 208.628906 154.824219 208.699219 153.96875 208.609375 C 147.171875 208.367188 140.210938 205.789062 135.109375 200.90625 C 132.558594 198.484375 130.535156 195.480469 129.273438 192.183594 C 128.957031 191.359375 128.726562 190.503906 128.464844 189.667969 C 128.226562 188.820312 128.113281 187.941406 127.949219 187.085938 C 127.71875 185.351562 127.65625 183.570312 127.75 181.96875 C 127.914062 178.679688 128.503906 175.320312 129.867188 172.167969 C 130.519531 170.585938 131.375 169.070312 132.410156 167.667969 C 133.464844 166.257812 134.621094 164.972656 136.25 163.832031 Z M 139.542969 168.445312 C 138.757812 169.058594 137.910156 170.042969 137.253906 171.066406 C 136.578125 172.101562 136.015625 173.234375 135.601562 174.4375 C 134.71875 176.824219 134.394531 179.457031 134.417969 182.117188 C 134.417969 183.492188 134.570312 184.699219 134.800781 185.90625 C 134.972656 186.496094 135.070312 187.105469 135.28125 187.679688 C 135.515625 188.246094 135.703125 188.828125 135.957031 189.382812 C 136.976562 191.597656 138.515625 193.558594 140.390625 195.132812 C 144.15625 198.292969 149.140625 199.914062 154.238281 199.960938 C 154.871094 200.019531 155.519531 199.933594 156.160156 199.90625 C 156.800781 199.867188 157.441406 199.867188 158.085938 199.738281 C 158.726562 199.636719 159.371094 199.542969 160.015625 199.460938 C 160.316406 199.410156 160.574219 199.332031 160.855469 199.273438 C 160.855469 199.273438 161.269531 199.179688 161.269531 199.179688 C 161.269531 199.179688 161.667969 199.046875 161.667969 199.046875 C 163.8125 198.398438 165.703125 197.191406 167.296875 195.5625 C 170.492188 192.289062 172.339844 187.265625 172.578125 182.230469 C 172.722656 179.707031 172.433594 177.160156 171.75 174.804688 C 171.402344 173.628906 170.957031 172.496094 170.394531 171.453125 C 169.820312 170.417969 169.15625 169.480469 168.375 168.625 C 166.761719 166.867188 164.722656 165.5625 162.398438 164.722656 C 160.078125 163.878906 157.460938 163.546875 154.804688 163.636719 C 152.144531 163.722656 149.425781 164.195312 146.808594 164.984375 C 145.496094 165.378906 144.210938 165.855469 142.980469 166.410156 C 142.363281 166.683594 141.765625 166.984375 141.195312 167.304688 C 140.613281 167.640625 140.152344 167.953125 139.542969 168.445312 Z M 139.542969 168.445312 " fill-opacity="1" fill-rule="nonzero"/><path fill="#000000" d="M 223.6875 163.496094 C 224.257812 163.089844 225.074219 162.570312 225.800781 162.167969 C 226.542969 161.761719 227.285156 161.386719 228.039062 161.054688 C 229.539062 160.386719 231.0625 159.832031 232.605469 159.371094 C 235.695312 158.460938 238.863281 157.859375 242.113281 157.636719 C 245.355469 157.417969 248.722656 157.585938 252.011719 158.550781 C 255.285156 159.507812 258.460938 161.230469 261.007812 163.636719 C 262.300781 164.851562 263.4375 166.253906 264.386719 167.734375 C 265.332031 169.21875 266.085938 170.792969 266.695312 172.410156 C 267.894531 175.648438 268.472656 179.050781 268.503906 182.460938 C 268.539062 184.167969 268.402344 185.875 268.148438 187.574219 C 267.902344 189.277344 267.488281 190.964844 266.9375 192.628906 C 266.402344 194.292969 265.671875 195.921875 264.773438 197.484375 C 264.34375 198.277344 263.824219 199.027344 263.308594 199.78125 C 262.75 200.507812 262.199219 201.25 261.554688 201.925781 C 260.304688 203.300781 258.855469 204.550781 257.234375 205.566406 C 255.628906 206.589844 253.886719 207.449219 252.066406 208.011719 C 252.066406 208.011719 251.386719 208.234375 251.386719 208.234375 C 251.386719 208.234375 250.699219 208.40625 250.699219 208.40625 C 250.246094 208.515625 249.765625 208.644531 249.328125 208.722656 C 249.328125 208.722656 246.789062 209.089844 246.789062 209.089844 C 245.949219 209.238281 245.078125 209.253906 244.214844 209.300781 C 243.351562 209.332031 242.492188 209.417969 241.617188 209.347656 C 234.675781 209.253906 227.429688 206.691406 222.128906 201.621094 C 221.5 200.957031 220.859375 200.304688 220.257812 199.617188 C 220.257812 199.617188 218.605469 197.421875 218.605469 197.421875 C 218.132812 196.636719 217.679688 195.835938 217.230469 195.042969 C 216.835938 194.214844 216.484375 193.363281 216.128906 192.523438 C 215.8125 191.667969 215.578125 190.777344 215.320312 189.90625 C 215.089844 189.027344 214.984375 188.113281 214.828125 187.222656 C 214.738281 186.777344 214.726562 186.324219 214.703125 185.871094 C 214.703125 185.871094 214.644531 184.519531 214.644531 184.519531 C 214.644531 184.519531 214.617188 183.84375 214.617188 183.84375 C 214.617188 183.84375 214.648438 183.210938 214.648438 183.210938 C 214.648438 183.210938 214.714844 181.953125 214.714844 181.953125 C 214.960938 178.597656 215.625 175.179688 217.066406 171.976562 C 217.761719 170.378906 218.640625 168.832031 219.710938 167.402344 C 220.800781 165.96875 221.988281 164.671875 223.6875 163.496094 Z M 227.457031 168.78125 C 226.738281 169.359375 225.921875 170.328125 225.300781 171.328125 C 224.65625 172.335938 224.121094 173.445312 223.753906 174.628906 C 222.945312 176.964844 222.699219 179.539062 222.800781 182.132812 C 222.839844 183.484375 223.015625 184.628906 223.269531 185.769531 C 223.449219 186.328125 223.554688 186.902344 223.769531 187.441406 C 224.015625 187.972656 224.195312 188.519531 224.449219 189.039062 C 225.46875 191.109375 226.933594 192.941406 228.71875 194.417969 C 230.496094 195.90625 232.574219 197.054688 234.8125 197.859375 C 237.050781 198.660156 239.449219 199.15625 241.933594 199.222656 C 242.546875 199.300781 243.179688 199.230469 243.804688 199.226562 C 244.433594 199.203125 245.058594 199.222656 245.691406 199.113281 C 245.691406 199.113281 247.585938 198.882812 247.585938 198.882812 C 247.882812 198.835938 248.125 198.777344 248.398438 198.726562 C 248.398438 198.726562 248.800781 198.65625 248.800781 198.65625 C 248.800781 198.65625 249.1875 198.542969 249.1875 198.542969 C 251.269531 198 253.144531 196.910156 254.769531 195.363281 C 258.035156 192.285156 260.117188 187.324219 260.511719 182.238281 C 260.71875 179.691406 260.507812 177.089844 259.851562 174.664062 C 259.511719 173.453125 259.082031 172.28125 258.515625 171.191406 C 257.933594 170.113281 257.246094 169.132812 256.433594 168.238281 C 253.128906 164.546875 247.863281 162.886719 242.449219 163.179688 C 239.746094 163.328125 237.023438 163.945312 234.457031 164.917969 C 233.175781 165.402344 231.925781 165.964844 230.746094 166.597656 C 230.152344 166.914062 229.589844 167.253906 229.046875 167.601562 C 228.496094 167.96875 228.066406 168.28125 227.457031 168.78125 Z M 227.457031 168.78125 " fill-opacity="1" fill-rule="nonzero"/><path fill="#000000" d="M 305.175781 163.800781 C 305.742188 163.375 306.527344 162.859375 307.234375 162.445312 C 307.960938 162.03125 308.6875 161.644531 309.425781 161.296875 C 310.902344 160.609375 312.386719 159.984375 313.914062 159.476562 C 316.960938 158.472656 320.109375 157.734375 323.375 157.496094 C 326.632812 157.253906 330.019531 157.476562 333.308594 158.46875 C 336.585938 159.453125 339.75 161.21875 342.253906 163.660156 C 343.527344 164.890625 344.644531 166.300781 345.5625 167.789062 C 346.476562 169.285156 347.1875 170.863281 347.757812 172.476562 C 348.882812 175.710938 349.355469 179.09375 349.3125 182.445312 C 349.300781 184.128906 349.125 185.804688 348.835938 187.464844 C 348.558594 189.128906 348.113281 190.769531 347.539062 192.378906 C 346.976562 193.992188 346.222656 195.550781 345.328125 197.046875 C 344.441406 198.546875 343.375 199.96875 342.136719 201.257812 C 339.6875 203.855469 336.464844 205.863281 333 206.90625 C 333 206.90625 332.355469 207.109375 332.355469 207.109375 C 332.355469 207.109375 331.695312 207.261719 331.695312 207.261719 C 331.261719 207.355469 330.8125 207.472656 330.390625 207.542969 C 330.390625 207.542969 327.925781 207.871094 327.925781 207.871094 C 327.109375 208.007812 326.269531 208.011719 325.4375 208.046875 C 324.601562 208.066406 323.773438 208.144531 322.929688 208.0625 C 316.238281 207.882812 309.371094 205.417969 304.292969 200.644531 C 301.757812 198.285156 299.707031 195.347656 298.433594 192.089844 C 298.113281 191.28125 297.878906 190.433594 297.609375 189.609375 C 297.367188 188.773438 297.25 187.902344 297.074219 187.054688 C 296.832031 185.335938 296.753906 183.570312 296.835938 181.972656 C 296.980469 178.695312 297.527344 175.34375 298.863281 172.1875 C 299.5 170.605469 300.339844 169.082031 301.363281 167.671875 C 302.402344 166.253906 303.546875 164.960938 305.175781 163.800781 Z M 308.511719 168.472656 C 307.71875 169.070312 306.859375 170.046875 306.191406 171.0625 C 305.5 172.085938 304.925781 173.21875 304.496094 174.417969 C 303.585938 176.800781 303.21875 179.441406 303.222656 182.113281 C 303.210938 183.492188 303.34375 184.714844 303.5625 185.9375 C 303.726562 186.539062 303.820312 187.15625 304.023438 187.738281 C 304.253906 188.316406 304.433594 188.90625 304.683594 189.472656 C 305.695312 191.730469 307.210938 193.757812 309.097656 195.394531 C 310.980469 197.035156 313.214844 198.285156 315.605469 199.128906 C 318 199.976562 320.550781 200.488281 323.164062 200.507812 C 323.8125 200.574219 324.472656 200.496094 325.128906 200.480469 C 325.785156 200.445312 326.4375 200.453125 327.09375 200.332031 C 327.09375 200.332031 329.066406 200.0625 329.066406 200.0625 C 329.378906 200.011719 329.648438 199.933594 329.941406 199.875 C 329.941406 199.875 330.375 199.78125 330.375 199.78125 C 330.375 199.78125 330.796875 199.648438 330.796875 199.648438 C 331.929688 199.335938 332.980469 198.828125 333.976562 198.230469 C 334.984375 197.644531 335.886719 196.878906 336.730469 196.03125 C 337.578125 195.191406 338.332031 194.226562 338.976562 193.171875 C 339.636719 192.125 340.203125 190.992188 340.65625 189.804688 C 341.597656 187.4375 342.128906 184.847656 342.246094 182.25 C 342.375 179.648438 342.0625 177.027344 341.332031 174.59375 C 340.953125 173.382812 340.480469 172.214844 339.882812 171.136719 C 339.269531 170.0625 338.558594 169.09375 337.726562 168.214844 C 336.023438 166.417969 333.882812 165.097656 331.480469 164.296875 C 329.078125 163.480469 326.417969 163.203125 323.730469 163.324219 C 321.042969 163.457031 318.300781 163.933594 315.695312 164.8125 C 314.390625 165.25 313.101562 165.742188 311.898438 166.359375 C 311.292969 166.660156 310.710938 166.988281 310.152344 167.328125 C 309.585938 167.683594 309.125 167.992188 308.511719 168.472656 Z M 308.511719 168.472656 " fill-opacity="1" fill-rule="nonzero"/></svg>