<svg xmlns="http://www.w3.org/2000/svg" xmlns:xlink="http://www.w3.org/1999/xlink" width="1080" zoomAndPan="magnify" viewBox="0 0 810 809.999993" height="1080" preserveAspectRatio="xMidYMid meet" version="1.0"><path stroke-linecap="round" transform="matrix(0.818166, 0, 0, 0.818166, 404.308231, 612.070069)" fill-opacity="1" fill="#ff3953" fill-rule="nonzero" stroke-linejoin="round" d="M -237.931609 -55.000751 C -237.931609 -55.000751 241.766336 -55.000751 241.766336 -55.000751 C 241.766336 -55.000751 273.726147 -37.058569 273.726147 -37.058569 C 273.726147 -37.058569 287.15175 -10.527247 287.15175 -10.527247 C 287.15175 -10.527247 287.15175 20.334452 287.15175 20.334452 C 287.15175 20.334452 273.912348 36.858639 273.912348 36.858639 C 273.912348 36.858639 253.520901 51.072017 253.520901 51.072017 C 253.520901 51.072017 191.764081 55.001346 191.764081 55.001346 C 191.764081 55.001346 -223.80417 55.001346 -223.80417 55.001346 C -223.80417 55.001346 -267.847978 42.86483 -267.847978 42.86483 C -267.847978 42.86483 -287.155638 12.027002 -287.155638 12.027002 C -287.155638 12.027002 -282.233235 -25.394718 -282.233235 -25.394718 C -282.233235 -25.394718 -256.231871 -55.000751 -256.231871 -55.000751 C -256.231871 -55.000751 -237.931609 -55.000751 -237.931609 -55.000751 Z M -237.931609 -55.000751 " stroke="#000000" stroke-width="1" stroke-opacity="1" stroke-miterlimit="4"/><path fill="#000000" d="M 595.085938 660.070312 C 595.085938 660.070312 333.558594 661.59375 333.558594 661.59375 C 333.558594 661.59375 268.179688 661.992188 268.179688 661.992188 C 268.179688 661.992188 235.488281 662.191406 235.488281 662.191406 C 235.488281 662.191406 219.140625 662.292969 219.140625 662.292969 C 219.140625 662.292969 215.054688 662.316406 215.054688 662.316406 C 214.359375 662.3125 213.722656 662.335938 212.980469 662.316406 C 212.980469 662.316406 210.703125 662.21875 210.703125 662.21875 C 210.703125 662.21875 208.421875 662.109375 208.421875 662.109375 C 207.664062 662.050781 206.914062 661.902344 206.15625 661.804688 C 204.652344 661.570312 203.132812 661.410156 201.664062 660.980469 C 195.722656 659.613281 190.03125 657.136719 184.96875 653.734375 C 179.898438 650.332031 175.484375 645.976562 171.949219 640.996094 C 168.414062 636.015625 165.78125 630.375 164.25 624.433594 C 162.710938 618.496094 162.273438 612.285156 162.925781 606.179688 C 164.195312 593.910156 170.347656 582.3125 179.496094 574.109375 C 184.0625 569.984375 189.394531 566.695312 195.160156 564.476562 C 200.914062 562.230469 207.109375 561.140625 213.273438 561.121094 C 213.273438 561.121094 474.800781 562.523438 474.800781 562.523438 C 474.800781 562.523438 540.183594 562.875 540.183594 562.875 C 540.183594 562.875 572.875 563.050781 572.875 563.050781 C 572.875 563.050781 589.21875 563.136719 589.21875 563.136719 C 589.21875 563.136719 593.304688 563.160156 593.304688 563.160156 C 593.996094 563.167969 594.644531 563.15625 595.371094 563.183594 C 595.371094 563.183594 597.589844 563.304688 597.589844 563.304688 C 597.589844 563.304688 599.804688 563.433594 599.804688 563.433594 C 600.539062 563.496094 601.269531 563.644531 602 563.75 C 603.460938 563.996094 604.9375 564.160156 606.355469 564.597656 C 612.105469 565.984375 617.589844 568.441406 622.453125 571.78125 C 627.324219 575.121094 631.542969 579.371094 634.898438 584.207031 C 638.253906 589.046875 640.726562 594.496094 642.136719 600.207031 C 643.550781 605.917969 643.910156 611.871094 643.222656 617.703125 C 641.894531 629.414062 635.902344 640.390625 627.136719 648.089844 C 622.757812 651.957031 617.675781 655.03125 612.195312 657.039062 C 606.710938 659.027344 600.898438 660.023438 595.085938 660.070312 Z M 595.085938 654.070312 C 600.179688 654.046875 605.242188 653.027344 609.921875 651.101562 C 614.609375 649.207031 618.964844 646.511719 622.71875 643.136719 C 630.222656 636.390625 635.261719 626.902344 636.28125 616.890625 C 636.8125 611.894531 636.449219 606.8125 635.191406 601.964844 C 633.941406 597.121094 631.789062 592.511719 628.890625 588.429688 C 625.996094 584.347656 622.375 580.769531 618.21875 577.988281 C 614.066406 575.203125 609.417969 573.1875 604.570312 572.074219 C 603.378906 571.707031 602.128906 571.601562 600.902344 571.40625 C 600.285156 571.324219 599.675781 571.199219 599.054688 571.152344 C 599.054688 571.152344 597.191406 571.074219 597.191406 571.074219 C 597.191406 571.074219 595.328125 570.984375 595.328125 570.984375 C 594.691406 570.960938 593.976562 570.984375 593.304688 570.980469 C 593.304688 570.980469 589.21875 571.003906 589.21875 571.003906 C 589.21875 571.003906 572.875 571.089844 572.875 571.089844 C 572.875 571.089844 540.183594 571.265625 540.183594 571.265625 C 540.183594 571.265625 474.800781 571.617188 474.800781 571.617188 C 474.800781 571.617188 213.273438 573.019531 213.273438 573.019531 C 208.535156 573.066406 203.851562 573.996094 199.445312 575.664062 C 195.042969 577.347656 190.933594 579.824219 187.371094 582.945312 C 180.25 589.183594 175.371094 598.054688 174.289062 607.507812 C 173.730469 612.230469 174.011719 617.054688 175.144531 621.671875 C 176.277344 626.289062 178.265625 630.707031 180.984375 634.648438 C 183.699219 638.578125 187.125 642.058594 191.082031 644.777344 C 195.035156 647.5 199.476562 649.496094 204.132812 650.628906 C 205.28125 651 206.480469 651.113281 207.660156 651.320312 C 208.253906 651.402344 208.84375 651.535156 209.441406 651.589844 C 209.441406 651.589844 211.242188 651.6875 211.242188 651.6875 C 211.242188 651.6875 213.042969 651.796875 213.042969 651.796875 C 213.664062 651.828125 214.386719 651.8125 215.054688 651.824219 C 215.054688 651.824219 219.140625 651.847656 219.140625 651.847656 C 219.140625 651.847656 235.488281 651.945312 235.488281 651.945312 C 235.488281 651.945312 268.179688 652.144531 268.179688 652.144531 C 268.179688 652.144531 333.558594 652.546875 333.558594 652.546875 C 333.558594 652.546875 595.085938 654.070312 595.085938 654.070312 Z M 595.085938 654.070312 " fill-opacity="1" fill-rule="nonzero"/><path stroke-linecap="butt" transform="matrix(0.818166, 0, 0, 0.818166, 353.794615, 610.284829)" fill-opacity="1" fill="#000000" fill-rule="nonzero" stroke-linejoin="miter" d="M 6.830149 12.222855 C 6.830149 12.222855 -3.874048 12.222855 -3.874048 12.222855 C -3.673523 3.352026 -3.850176 -5.50448 -4.442201 -14.360985 C -4.695244 -18.190051 -10.696661 -18.218698 -10.438843 -14.360985 C -9.799074 -4.688058 -9.622422 4.98487 -9.923209 14.67212 C -9.937532 15.192529 -9.837269 15.631774 -9.660617 16.013726 C -9.378927 17.207325 -8.452694 18.219497 -6.86282 18.219497 C -6.86282 18.219497 6.830149 18.219497 6.830149 18.219497 C 10.692636 18.219497 10.69741 12.222855 6.830149 12.222855 Z M 6.830149 12.222855 " stroke="#000000" stroke-width="1" stroke-opacity="1" stroke-miterlimit="10"/><path stroke-linecap="butt" transform="matrix(0.818166, 0, 0, 0.818166, 375.354126, 610.120357)" fill-opacity="1" fill="#000000" fill-rule="nonzero" stroke-linejoin="miter" d="M 8.146761 -13.162111 C 7.970109 -13.80188 7.583383 -14.403454 6.89587 -14.861796 C 3.701798 -16.986403 -0.342116 -19.130107 -4.257121 -17.707337 C -8.1769 -16.279792 -10.005494 -11.801408 -11.199093 -8.125123 C -13.457383 -1.144955 -14.068506 12.81538 -6.668191 17.2126 C -3.435925 19.131907 1.682228 19.002998 5.119794 17.656619 C 8.977506 16.143135 10.385953 12.767637 11.049595 8.929022 C 12.219322 2.163702 14.071788 -8.139446 8.146761 -13.162111 Z M 5.883697 2.158927 C 5.716594 4.359924 5.826405 7.611288 4.819007 9.640407 C 2.842407 13.617479 -0.652451 13.101844 -3.292693 10.905622 C -6.973752 7.845234 -7.011948 2.330806 -6.386502 -2.219194 C -6.085715 -4.377222 -5.613049 -6.888554 -4.534036 -8.807862 C -2.695893 -12.087872 0.226038 -11.739341 2.861504 -10.292699 C 3.057255 -9.714997 3.443981 -9.180264 4.08375 -8.764892 C 7.163236 -6.769194 6.117643 -0.877589 5.883697 2.158927 Z M 5.883697 2.158927 " stroke="#000000" stroke-width="1" stroke-opacity="1" stroke-miterlimit="10"/><path stroke-linecap="butt" transform="matrix(0.818166, 0, 0, 0.818166, 400.417044, 610.366693)" fill-opacity="1" fill="#000000" fill-rule="nonzero" stroke-linejoin="miter" d="M 13.431508 2.650394 C 12.075579 -1.90438 5.167027 -0.596196 1.66262 -0.529354 C -2.190318 -0.457738 -2.204641 5.543678 1.66262 5.472062 C 2.4122 5.457739 8.026891 6.092734 7.711781 4.517183 C 8.236964 6.393521 6.050291 10.848033 5.038118 11.817236 C 0.311466 16.338589 -3.909101 8.771171 -4.973791 4.932556 C -6.01461 1.170331 -6.501598 -4.138798 -5.670853 -8.029931 C -4.143046 -15.191526 4.885338 -15.401599 6.761676 -8.402334 C 7.764299 -4.678305 13.550868 -6.253855 12.548244 -9.996982 C 10.28518 -18.419018 0.593155 -22.7112 -6.706897 -17.211096 C -14.503487 -11.333813 -12.894515 3.099187 -9.127516 10.895777 C -5.384389 18.639848 4.426996 22.712408 10.375894 14.743941 C 12.495726 11.912723 14.500972 6.235966 13.431508 2.650394 Z M 13.431508 2.650394 " stroke="#000000" stroke-width="1" stroke-opacity="1" stroke-miterlimit="10"/><path stroke-linecap="butt" transform="matrix(0.818166, 0, 0, 0.818166, 420.637974, 610.202149)" fill-opacity="1" fill="#000000" fill-rule="nonzero" stroke-linejoin="miter" d="M 2.57664 -15.300748 C 2.132621 -19.091619 -3.868796 -19.134589 -3.424777 -15.300748 C -2.231178 -5.107412 -2.130916 5.076376 -3.119216 15.293585 C -3.491619 19.136974 2.509798 19.108328 2.882201 15.293585 C 3.870501 5.076376 3.770239 -5.107412 2.57664 -15.300748 Z M 2.57664 -15.300748 " stroke="#000000" stroke-width="1" stroke-opacity="1" stroke-miterlimit="10"/><path stroke-linecap="butt" transform="matrix(0.818166, 0, 0, 0.818166, 440.948957, 609.893773)" fill-opacity="1" fill="#000000" fill-rule="nonzero" stroke-linejoin="miter" d="M 10.398955 15.455648 C 11.172407 4.947201 11.635524 -5.56602 11.793079 -16.103113 C 11.855146 -20.199545 5.486101 -20.20432 5.424034 -16.103113 C 5.342869 -10.579136 5.170991 -5.059934 4.922722 0.454494 C 3.986941 -1.908832 3.046385 -4.267384 2.072408 -6.616387 C 0.162649 -11.233229 -1.66117 -15.821424 -6.335305 -18.218171 C -6.960751 -18.54283 -7.576648 -18.633543 -8.144801 -18.571476 C -9.81584 -18.690836 -11.587141 -17.678664 -11.606239 -15.520637 C -11.606239 -15.520637 -11.825861 16.100192 -11.825861 16.100192 C -11.854507 20.196624 -5.485462 20.201398 -5.456816 16.100192 C -5.404297 8.021913 -5.347005 -0.0611408 -5.289712 -8.13942 C -3.742807 -5.293879 -2.802251 -1.861088 -1.751884 0.769604 C 0.262911 5.820916 2.186993 10.905648 4.044233 16.019027 C 4.263856 19.069866 8.570361 19.365879 9.96926 16.926162 C 10.255723 16.515564 10.408504 16.019027 10.398955 15.455648 Z M 10.398955 15.455648 " stroke="#000000" stroke-width="1" stroke-opacity="1" stroke-miterlimit="10"/><path stroke-linecap="butt" transform="matrix(0.817361, 0, 0, 0.817361, 403.095079, 105.96673)" fill-opacity="1" fill="#ff3953" fill-rule="nonzero" stroke-linejoin="miter" d="M -61.054628 -91.240104 C -61.054628 -91.240104 -15.74876 -109.826024 -15.74876 -109.826024 C -15.74876 -109.826024 37.648123 -103.235645 37.648123 -103.235645 C 37.648123 -103.235645 93.252951 -64.309876 93.252951 -64.309876 C 93.252951 -64.309876 109.736066 6.282209 109.736066 6.282209 C 109.736066 6.282209 88.942202 64.553774 88.942202 64.553774 C 88.942202 64.553774 44.577818 100.435256 44.577818 100.435256 C 44.577818 100.435256 0.0891767 109.826188 0.0891767 109.826188 C 0.0891767 109.826188 -43.99802 100.612083 -43.99802 100.612083 C -43.99802 100.612083 -87.067269 66.819068 -87.067269 66.819068 C -87.067269 66.819068 -109.73454 19.190558 -109.73454 19.190558 C -109.73454 19.190558 -108.554102 -16.141328 -108.554102 -16.141328 C -108.554102 -16.141328 -90.317057 -62.360003 -90.317057 -62.360003 C -90.317057 -62.360003 -61.054628 -91.240104 -61.054628 -91.240104 Z M -61.054628 -91.240104 " stroke="#000000" stroke-width="1" stroke-opacity="1" stroke-miterlimit="10"/><path fill="#000000" d="M 495.335938 115.203125 C 495.335938 115.203125 530.039062 114.898438 530.039062 114.898438 C 530.039062 114.898438 564.742188 114.671875 564.742188 114.671875 C 564.742188 114.671875 634.144531 114.253906 634.144531 114.253906 C 634.144531 114.253906 651.496094 114.175781 651.496094 114.175781 C 651.496094 114.175781 655.832031 114.15625 655.832031 114.15625 C 655.832031 114.15625 658.023438 114.152344 658.023438 114.152344 C 658.023438 114.152344 660.375 114.203125 660.375 114.203125 C 663.511719 114.347656 666.636719 114.753906 669.707031 115.417969 C 682.019531 118.066406 693.285156 125.128906 701.105469 134.984375 C 705.050781 139.882812 708.136719 145.480469 710.199219 151.4375 C 711.226562 154.417969 712.03125 157.480469 712.527344 160.597656 C 712.757812 162.15625 712.976562 163.722656 713.078125 165.296875 C 713.078125 165.296875 713.167969 166.476562 713.167969 166.476562 C 713.167969 166.476562 713.203125 167.65625 713.203125 167.65625 C 713.222656 168.429688 713.257812 169.273438 713.253906 169.964844 C 713.253906 169.964844 713.351562 204.667969 713.351562 204.667969 C 713.351562 204.667969 713.488281 343.476562 713.488281 343.476562 C 713.488281 389.746094 713.542969 436.015625 713.175781 482.289062 C 712.859375 528.558594 712.246094 574.828125 711.820312 621.097656 C 711.820312 621.097656 711.539062 655.800781 711.539062 655.800781 C 711.539062 655.800781 711.355469 690.5 711.355469 690.5 C 711.355469 690.5 711.339844 699.175781 711.339844 699.175781 C 711.339844 699.175781 711.332031 703.515625 711.332031 703.515625 C 711.328125 704.964844 711.34375 706.378906 711.285156 707.933594 C 711.1875 710.972656 710.847656 714.011719 710.238281 716.996094 C 709.617188 719.976562 708.742188 722.90625 707.628906 725.738281 C 705.421875 731.414062 702.191406 736.671875 698.21875 741.269531 C 694.253906 745.882812 689.503906 749.820312 684.214844 752.835938 C 678.941406 755.871094 673.136719 758.011719 667.132812 759.066406 C 664.136719 759.601562 661.09375 759.902344 658.046875 759.914062 C 658.046875 759.914062 649.355469 759.933594 649.355469 759.933594 C 649.355469 759.933594 614.652344 759.988281 614.652344 759.988281 C 614.652344 759.988281 545.25 760.089844 545.25 760.089844 C 545.25 760.089844 406.441406 760.460938 406.441406 760.460938 C 406.441406 760.460938 267.628906 760.984375 267.628906 760.984375 C 267.628906 760.984375 198.226562 761.261719 198.226562 761.261719 C 198.226562 761.261719 163.523438 761.402344 163.523438 761.402344 C 163.523438 761.402344 154.824219 761.429688 154.824219 761.429688 C 151.695312 761.433594 148.5625 761.136719 145.472656 760.605469 C 139.285156 759.550781 133.292969 757.375 127.84375 754.277344 C 122.375 751.191406 117.453125 747.160156 113.335938 742.421875 C 109.207031 737.695312 105.863281 732.261719 103.5625 726.398438 C 102.40625 723.472656 101.496094 720.445312 100.84375 717.363281 C 100.203125 714.277344 99.84375 711.136719 99.734375 707.988281 C 99.671875 706.359375 99.6875 704.96875 99.679688 703.515625 C 99.679688 703.515625 99.660156 699.179688 99.660156 699.179688 C 99.660156 699.179688 99.625 690.503906 99.625 690.503906 C 99.625 690.503906 99.355469 621.097656 99.355469 621.097656 C 99.355469 621.097656 98.816406 482.289062 98.816406 482.289062 C 98.816406 482.289062 98.421875 343.480469 98.421875 343.480469 C 98.421875 343.480469 98.199219 204.667969 98.199219 204.667969 C 98.199219 204.667969 98.160156 169.964844 98.160156 169.964844 C 98.148438 169.285156 98.183594 168.402344 98.199219 167.613281 C 98.199219 167.613281 98.230469 166.402344 98.230469 166.402344 C 98.230469 166.402344 98.320312 165.191406 98.320312 165.191406 C 98.417969 163.574219 98.636719 161.964844 98.867188 160.363281 C 99.363281 157.15625 100.179688 154.003906 101.222656 150.9375 C 103.320312 144.804688 106.472656 139.039062 110.511719 133.980469 C 118.519531 123.8125 130.105469 116.503906 142.792969 113.726562 C 145.960938 113.03125 149.1875 112.613281 152.421875 112.460938 C 152.421875 112.460938 154.847656 112.40625 154.847656 112.40625 C 154.847656 112.40625 157.042969 112.410156 157.042969 112.410156 C 157.042969 112.410156 161.382812 112.425781 161.382812 112.425781 C 161.382812 112.425781 178.734375 112.527344 178.734375 112.527344 C 201.867188 112.691406 225.003906 112.945312 248.136719 113.382812 C 248.136719 113.382812 265.488281 113.714844 265.488281 113.714844 C 265.488281 113.714844 282.839844 114.128906 282.839844 114.128906 C 294.40625 114.410156 305.976562 114.761719 317.542969 115.203125 C 317.542969 115.203125 317.542969 121.742188 317.542969 121.742188 C 305.976562 122.183594 294.40625 122.53125 282.839844 122.816406 C 282.839844 122.816406 265.488281 123.230469 265.488281 123.230469 C 265.488281 123.230469 248.136719 123.5625 248.136719 123.5625 C 225.003906 124 201.867188 124.253906 178.734375 124.417969 C 178.734375 124.417969 161.382812 124.519531 161.382812 124.519531 C 161.382812 124.519531 157.042969 124.535156 157.042969 124.535156 C 157.042969 124.535156 154.902344 124.550781 154.902344 124.550781 C 154.902344 124.550781 152.992188 124.605469 152.992188 124.605469 C 150.453125 124.75 147.925781 125.105469 145.449219 125.65625 C 135.523438 127.847656 126.425781 133.609375 120.085938 141.597656 C 116.894531 145.570312 114.410156 150.097656 112.753906 154.90625 C 111.929688 157.308594 111.28125 159.773438 110.890625 162.285156 C 110.707031 163.546875 110.527344 164.804688 110.453125 166.078125 C 110.453125 166.078125 110.378906 167.027344 110.378906 167.027344 C 110.378906 167.027344 110.351562 167.980469 110.351562 167.980469 C 110.339844 168.640625 110.304688 169.203125 110.3125 169.964844 C 110.3125 169.964844 110.273438 204.667969 110.273438 204.667969 C 110.273438 204.667969 110.050781 343.480469 110.050781 343.480469 C 110.050781 343.480469 109.65625 482.289062 109.65625 482.289062 C 109.65625 482.289062 109.117188 621.097656 109.117188 621.097656 C 109.117188 621.097656 108.84375 690.503906 108.84375 690.503906 C 108.84375 690.503906 108.8125 699.179688 108.8125 699.179688 C 108.8125 699.179688 108.792969 703.515625 108.792969 703.515625 C 108.792969 704.953125 108.773438 706.457031 108.816406 707.71875 C 108.886719 710.351562 109.164062 712.976562 109.675781 715.558594 C 110.203125 718.140625 110.945312 720.675781 111.894531 723.132812 C 113.78125 728.054688 116.546875 732.644531 119.996094 736.65625 C 123.433594 740.675781 127.558594 744.117188 132.148438 746.75 C 136.726562 749.402344 141.757812 751.277344 146.96875 752.207031 C 149.570312 752.675781 152.214844 752.953125 154.871094 752.972656 C 154.871094 752.972656 163.523438 753.011719 163.523438 753.011719 C 163.523438 753.011719 198.226562 753.152344 198.226562 753.152344 C 198.226562 753.152344 267.628906 753.429688 267.628906 753.429688 C 267.628906 753.429688 406.441406 753.953125 406.441406 753.953125 C 406.441406 753.953125 545.25 754.324219 545.25 754.324219 C 545.25 754.324219 614.652344 754.425781 614.652344 754.425781 C 614.652344 754.425781 649.355469 754.480469 649.355469 754.480469 C 649.355469 754.480469 658.019531 754.484375 658.019531 754.484375 C 660.757812 754.484375 663.492188 754.214844 666.1875 753.75 C 671.582031 752.816406 676.800781 750.910156 681.554688 748.191406 C 691.097656 742.796875 698.726562 734.023438 702.671875 723.792969 C 703.664062 721.242188 704.445312 718.609375 705 715.925781 C 705.539062 713.242188 705.835938 710.511719 705.921875 707.773438 C 705.96875 706.433594 705.953125 704.957031 705.953125 703.515625 C 705.953125 703.515625 705.945312 699.175781 705.945312 699.175781 C 705.945312 699.175781 705.925781 690.5 705.925781 690.5 C 705.925781 690.5 705.746094 655.800781 705.746094 655.800781 C 705.746094 655.800781 705.464844 621.097656 705.464844 621.097656 C 705.039062 574.828125 704.425781 528.558594 704.109375 482.289062 C 703.742188 436.015625 703.796875 389.746094 703.792969 343.476562 C 703.792969 343.476562 703.933594 204.667969 703.933594 204.667969 C 703.933594 204.667969 704.03125 169.964844 704.03125 169.964844 C 704.042969 169.210938 704.011719 168.609375 704 167.9375 C 704 167.9375 703.980469 166.949219 703.980469 166.949219 C 703.980469 166.949219 703.90625 165.964844 703.90625 165.964844 C 703.835938 164.652344 703.652344 163.347656 703.472656 162.046875 C 703.078125 159.449219 702.421875 156.894531 701.578125 154.402344 C 699.890625 149.421875 697.339844 144.722656 694.054688 140.59375 C 687.53125 132.289062 678.113281 126.28125 667.808594 123.960938 C 665.234375 123.378906 662.609375 123.015625 659.96875 122.867188 C 659.96875 122.867188 657.984375 122.804688 657.984375 122.804688 C 657.984375 122.804688 655.832031 122.789062 655.832031 122.789062 C 655.832031 122.789062 651.496094 122.769531 651.496094 122.769531 C 651.496094 122.769531 634.144531 122.691406 634.144531 122.691406 C 634.144531 122.691406 564.742188 122.269531 564.742188 122.269531 C 564.742188 122.269531 530.039062 122.046875 530.039062 122.046875 C 530.039062 122.046875 495.335938 121.742188 495.335938 121.742188 C 495.335938 121.742188 495.335938 115.203125 495.335938 115.203125 Z M 495.335938 115.203125 " fill-opacity="1" fill-rule="nonzero"/><path fill="#000000" d="M 498.519531 105.964844 C 498.371094 118.4375 495.769531 130.871094 490.863281 142.292969 C 485.976562 153.722656 478.820312 164.136719 469.9375 172.734375 C 461.066406 181.339844 450.523438 188.167969 439.09375 192.699219 C 427.6875 197.28125 415.390625 199.535156 403.171875 199.394531 C 390.953125 199.214844 378.765625 196.753906 367.53125 192.007812 C 356.292969 187.28125 345.976562 180.386719 337.382812 171.753906 C 328.75 163.167969 321.808594 152.871094 317.113281 141.613281 C 312.394531 130.371094 309.890625 118.183594 309.816406 105.964844 C 309.730469 93.757812 311.960938 81.480469 316.558594 70.09375 C 321.128906 58.699219 327.984375 48.207031 336.601562 39.398438 C 345.203125 30.578125 355.570312 23.433594 366.957031 18.550781 C 378.339844 13.65625 390.734375 11.035156 403.171875 10.898438 C 415.597656 10.777344 428.113281 13.074219 439.699219 17.78125 C 451.285156 22.472656 461.933594 29.484375 470.859375 38.277344 C 475.300781 42.695312 479.308594 47.550781 482.808594 52.75 C 486.285156 57.964844 489.226562 63.539062 491.601562 69.335938 C 496.304688 80.957031 498.636719 93.5 498.519531 105.964844 Z M 487.355469 105.964844 C 487.230469 94.929688 484.945312 83.972656 480.625 73.886719 C 478.503906 68.828125 475.867188 63.992188 472.8125 59.441406 C 469.78125 54.875 466.296875 50.601562 462.429688 46.707031 C 454.734375 38.878906 445.484375 32.5625 435.351562 28.265625 C 425.230469 23.949219 414.246094 21.628906 403.171875 21.5 C 392.101562 21.375 380.996094 23.371094 370.667969 27.496094 C 360.339844 31.601562 350.808594 37.789062 342.785156 45.585938 C 334.785156 53.398438 328.308594 62.808594 323.890625 73.132812 C 319.46875 83.449219 317.082031 94.671875 316.988281 105.964844 C 316.921875 117.253906 319.035156 128.570312 323.335938 139.03125 C 327.628906 149.492188 334.019531 159.097656 342.007812 167.128906 C 350.035156 175.117188 359.617188 181.554688 370.097656 185.816406 C 380.570312 190.089844 391.882812 192.246094 403.171875 192.078125 C 414.453125 191.925781 425.65625 189.5625 435.957031 185.125 C 446.246094 180.667969 455.601562 174.164062 463.351562 166.152344 C 471.089844 158.125 477.261719 148.644531 481.363281 138.355469 C 485.476562 128.066406 487.496094 117 487.355469 105.964844 Z M 487.355469 105.964844 " fill-opacity="1" fill-rule="nonzero"/><path fill="#ffffff" d="M 427.355469 68.015625 C 427.355469 83.894531 414.484375 96.765625 398.605469 96.765625 C 382.730469 96.765625 369.859375 83.894531 369.859375 68.015625 C 369.859375 52.140625 382.730469 39.269531 398.605469 39.269531 C 414.484375 39.269531 427.355469 52.140625 427.355469 68.015625 Z M 427.355469 68.015625 " fill-opacity="1" fill-rule="nonzero"/><path fill="#000000" d="M 430.585938 68.015625 C 430.570312 72.195312 429.734375 76.382812 428.121094 80.242188 C 426.496094 84.101562 424.152344 87.648438 421.210938 90.625 C 418.269531 93.597656 414.730469 95.980469 410.867188 97.613281 C 407.003906 99.253906 402.804688 100.113281 398.605469 100.152344 C 390.195312 100.242188 381.757812 96.851562 375.726562 90.898438 C 372.703125 87.933594 370.257812 84.367188 368.597656 80.449219 C 366.933594 76.53125 366.058594 72.273438 366.019531 68.015625 C 365.992188 63.761719 366.785156 59.46875 368.425781 55.515625 C 370.054688 51.554688 372.464844 47.925781 375.480469 44.894531 C 378.503906 41.867188 382.109375 39.40625 386.085938 37.789062 C 390.050781 36.167969 394.34375 35.347656 398.605469 35.367188 C 407.164062 35.410156 415.59375 39.074219 421.445312 45.179688 C 424.382812 48.21875 426.707031 51.824219 428.28125 55.722656 C 429.851562 59.628906 430.628906 63.839844 430.585938 68.015625 Z M 424.125 68.015625 C 424.042969 61.324219 421.234375 54.757812 416.421875 50.199219 C 414.039062 47.917969 411.214844 46.117188 408.171875 44.917969 C 405.128906 43.710938 401.867188 43.164062 398.605469 43.171875 C 392.074219 43.207031 385.699219 45.910156 381.074219 50.484375 C 376.433594 55.066406 373.769531 61.480469 373.695312 68.015625 C 373.609375 74.5625 376.214844 81.070312 380.832031 85.792969 C 383.132812 88.152344 385.902344 90.058594 388.9375 91.359375 C 391.976562 92.660156 395.277344 93.339844 398.605469 93.382812 C 401.9375 93.40625 405.257812 92.785156 408.347656 91.539062 C 411.4375 90.296875 414.277344 88.414062 416.660156 86.070312 C 421.472656 81.382812 424.160156 74.707031 424.125 68.015625 Z M 424.125 68.015625 " fill-opacity="1" fill-rule="nonzero"/><path fill="#ffffff" d="M 448.101562 136.238281 C 448.101562 164.988281 425.941406 164.988281 398.605469 164.988281 C 371.273438 164.988281 349.113281 164.988281 349.113281 136.238281 C 349.113281 120.363281 371.273438 107.492188 398.605469 107.492188 C 425.941406 107.492188 448.101562 120.363281 448.101562 136.238281 Z M 448.101562 136.238281 " fill-opacity="1" fill-rule="nonzero"/><path fill="#000000" d="M 451.511719 136.238281 C 451.46875 139.097656 451.25 141.988281 450.679688 144.890625 C 450.113281 147.785156 449.167969 150.710938 447.65625 153.425781 C 446.164062 156.144531 444.085938 158.621094 441.636719 160.539062 C 439.175781 162.457031 436.429688 163.847656 433.660156 164.855469 C 428.085938 166.867188 422.449219 167.566406 416.945312 167.988281 C 411.425781 168.390625 405.988281 168.4375 400.597656 168.488281 C 395.21875 168.515625 389.824219 168.625 384.328125 168.472656 C 378.839844 168.304688 373.25 167.964844 367.558594 166.644531 C 364.71875 165.96875 361.851562 165.015625 359.09375 163.578125 C 357.710938 162.875 356.382812 161.996094 355.105469 161.042969 C 353.859375 160.027344 352.65625 158.941406 351.625 157.691406 C 349.523438 155.222656 347.980469 152.335938 346.976562 149.402344 C 345.96875 146.460938 345.4375 143.476562 345.183594 140.550781 C 345.035156 139.074219 345.027344 137.644531 344.988281 136.171875 C 345.019531 134.503906 345.179688 132.828125 345.585938 131.214844 C 346.351562 127.976562 347.871094 125.035156 349.707031 122.492188 C 353.464844 117.4375 358.390625 113.84375 363.523438 111.128906 C 368.691406 108.425781 374.164062 106.609375 379.703125 105.363281 C 385.25 104.121094 390.890625 103.472656 396.523438 103.414062 C 407.765625 103.289062 419.128906 105.09375 429.625 109.726562 C 434.839844 112.074219 439.882812 115.132812 444.089844 119.445312 C 446.1875 121.589844 448.054688 124.082031 449.398438 126.941406 C 450.777344 129.773438 451.511719 133.011719 451.511719 136.238281 Z M 444.6875 136.238281 C 444.628906 131.9375 442.417969 127.769531 439.007812 124.464844 C 435.628906 121.117188 431.277344 118.535156 426.648438 116.609375 C 422.007812 114.675781 417.046875 113.382812 412.011719 112.570312 C 406.972656 111.746094 401.832031 111.464844 396.710938 111.628906 C 391.597656 111.816406 386.5 112.394531 381.558594 113.546875 C 376.617188 114.675781 371.820312 116.34375 367.449219 118.632812 C 363.082031 120.878906 359.132812 123.847656 356.433594 127.4375 C 355.121094 129.234375 354.125 131.171875 353.640625 133.167969 C 353.375 134.167969 353.289062 135.183594 353.246094 136.199219 C 353.273438 137.414062 353.269531 138.675781 353.386719 139.878906 C 353.722656 144.734375 354.988281 149.296875 357.71875 152.585938 C 360.367188 155.941406 364.640625 157.988281 369.390625 159.214844 C 374.164062 160.4375 379.363281 160.898438 384.605469 161.164062 C 389.859375 161.414062 395.21875 161.449219 400.59375 161.488281 C 405.957031 161.519531 411.28125 161.546875 416.5 161.242188 C 421.695312 160.929688 426.855469 160.328125 431.4375 158.710938 C 433.714844 157.894531 435.820312 156.820312 437.613281 155.433594 C 439.378906 154.015625 440.816406 152.28125 441.894531 150.28125 C 444.054688 146.261719 444.691406 141.257812 444.6875 136.238281 Z M 444.6875 136.238281 " fill-opacity="1" fill-rule="nonzero"/><path stroke-linecap="round" transform="matrix(0.817361, 0, 0, 0.817361, 209.791649, 437.920798)" fill="none" stroke-linejoin="round" d="M -19.004866 -13.915421 C -6.082179 -13.662129 6.854844 -14.321645 19.681948 -15.893969 C 20.121625 -15.946539 20.609094 -15.989551 20.972305 -15.736258 C 21.411982 -15.425617 21.483669 -14.809113 21.512343 -14.269075 C 22.033265 -4.992842 22.334349 4.28817 22.429931 13.578741 C 8.809496 15.562067 -5.040336 15.992186 -18.756352 14.845202 C -19.186471 14.806969 -19.664381 14.74962 -19.951127 14.424641 C -20.190082 14.152233 -20.233094 13.769905 -20.266548 13.406693 C -20.801807 7.537958 -21.332287 1.664444 -21.867547 -4.20429 C -22.149513 -7.282031 -22.426701 -10.369329 -22.297666 -13.456628 " stroke="#000000" stroke-width="8" stroke-opacity="1" stroke-miterlimit="4"/><path stroke-linecap="butt" transform="matrix(0.817361, 0, 0, 0.817361, 254.173496, 306.149887)" fill-opacity="1" fill="#000000" fill-rule="nonzero" stroke-linejoin="miter" d="M 15.2768 -17.182638 C 15.305474 -21.04415 9.302925 -21.048929 9.27425 -17.182638 C 9.231238 -11.720126 9.040074 -6.262394 8.633851 -0.809441 C 8.275418 3.979217 8.609955 11.931639 2.674313 13.389265 C -9.727451 16.433551 -6.487221 -8.761864 -6.472884 -15.237544 C -6.468105 -19.099057 -12.465875 -19.103836 -12.475433 -15.237544 C -12.49455 -4.451115 -15.605744 21.050162 2.196403 19.516071 C 7.974335 19.019044 12.017454 14.832553 13.432067 9.393937 C 15.601779 1.059187 15.209892 -8.651944 15.2768 -17.182638 Z M 15.2768 -17.182638 " stroke="#000000" stroke-width="1" stroke-opacity="1" stroke-miterlimit="10"/><path stroke-linecap="butt" transform="matrix(0.817361, 0, 0, 0.817361, 278.970604, 309.116107)" fill-opacity="1" fill="#000000" fill-rule="nonzero" stroke-linejoin="miter" d="M -0.04528 -4.514927 C -1.292625 -5.346491 -2.458725 -7.535318 -1.488568 -9.141096 C -0.747808 -10.359767 3.56294 -6.584278 3.371776 -7.162549 C 4.57611 -3.516095 10.368379 -5.078861 9.154487 -8.758768 C 7.037346 -15.17232 -4.900846 -18.713633 -7.271279 -10.732536 C -8.193645 -7.63568 -7.930795 -3.258024 -5.555582 -0.854137 C -3.624826 1.100515 -0.561423 1.01927 1.240298 3.059946 C 2.721819 4.73741 3.811454 7.528404 1.431462 9.392253 C -0.924634 11.236986 -3.620047 9.377916 -4.002375 6.888005 C -4.585425 3.083842 -10.368136 4.699177 -9.789865 8.484224 C -8.356135 17.803469 4.217677 18.716277 7.92148 10.391085 C 9.699305 6.400537 8.600112 1.807822 5.579721 -1.269918 C 3.887919 -2.990394 1.823348 -3.272361 -0.04528 -4.514927 Z M -0.04528 -4.514927 " stroke="#000000" stroke-width="1" stroke-opacity="1" stroke-miterlimit="10"/><path stroke-linecap="butt" transform="matrix(0.817361, 0, 0, 0.817361, 299.722577, 310.023374)" fill-opacity="1" fill="#000000" fill-rule="nonzero" stroke-linejoin="miter" d="M 4.631045 7.011017 C 2.547357 11.904816 -3.330936 11.054136 -4.602177 6.102988 C -4.946272 4.760061 -5.146994 3.149505 -5.213901 1.47682 C -1.40018 1.400354 5.128071 1.710995 7.73268 -0.812369 C 9.96452 -2.967743 9.199864 -7.746843 8.124567 -10.227196 C 5.314456 -16.698097 -3.589007 -18.581063 -7.995337 -12.631083 C -10.303643 -9.500773 -10.662075 -5.295165 -10.776774 -1.543572 C -10.90103 2.614245 -11.039624 8.607237 -8.497143 12.196341 C -3.966556 18.581218 6.681278 16.769939 9.601308 9.91671 C 11.039818 6.547445 6.083891 3.613077 4.631045 7.011017 Z M -1.099096 -10.327557 C 1.505513 -10.662094 3.16864 -8.530616 3.249885 -6.016809 C 3.144744 -5.577132 3.135186 -5.290386 3.211652 -5.127897 C 2.231936 -4.974965 1.252221 -4.836371 0.267726 -4.731231 C -1.45275 -4.535288 -3.182784 -4.415811 -4.908039 -4.325008 C -4.788561 -5.137455 -4.645188 -5.921227 -4.454024 -6.614197 C -3.918765 -8.602302 -3.244912 -10.055149 -1.099096 -10.327557 Z M -1.099096 -10.327557 " stroke="#000000" stroke-width="1" stroke-opacity="1" stroke-miterlimit="10"/><path stroke-linecap="butt" transform="matrix(0.817361, 0, 0, 0.817361, 322.085584, 309.108756)" fill-opacity="1" fill="#000000" fill-rule="nonzero" stroke-linejoin="miter" d="M 1.897735 -15.827621 C -0.6782 -15.741597 -2.69498 -14.924371 -4.33899 -13.643573 C -4.39156 -17.395166 -10.265074 -17.366491 -10.331982 -13.538432 C -10.484913 -4.515492 -10.637844 4.507449 -10.790775 13.535169 C -10.857683 17.396681 -4.859912 17.396681 -4.793005 13.535169 C -4.702202 8.053541 -4.60662 2.576693 -4.511038 -2.904935 C -3.550439 -5.232357 -2.298315 -8.362667 -0.133382 -9.371057 C 0.975369 -9.8872 2.863113 -10.197841 3.842829 -9.366278 C 4.970696 -8.410458 4.78909 -6.412794 4.808207 -5.074646 C 4.860777 -1.217913 10.858547 -1.208355 10.805977 -5.074646 C 10.729512 -10.766554 8.435544 -16.052239 1.897735 -15.827621 Z M 1.897735 -15.827621 " stroke="#000000" stroke-width="1" stroke-opacity="1" stroke-miterlimit="10"/><path stroke-linecap="butt" transform="matrix(0.817361, 0, 0, 0.817361, 346.201803, 308.808756)" fill-opacity="1" fill="#000000" fill-rule="nonzero" stroke-linejoin="miter" d="M 1.076915 -15.97195 C -2.583876 -15.65175 -4.705796 -12.612243 -6.244666 -9.405467 C -6.321132 -10.55723 -6.407155 -11.713772 -6.507517 -12.870314 C -6.846833 -16.684036 -12.849382 -16.722269 -12.510066 -12.870314 C -11.836213 -5.252429 -11.721515 2.34634 -12.165971 9.964225 C -12.27589 11.015627 -12.357135 12.076587 -12.385809 13.151885 C -12.390589 13.2857 -12.371472 13.405177 -12.361914 13.529434 C -12.357135 13.586783 -12.357135 13.648911 -12.347577 13.70626 C -11.884004 16.99906 -6.483621 16.812675 -6.388039 13.151885 C -6.388039 13.113652 -6.38326 13.075419 -6.378481 13.037186 C -6.378481 13.01807 -6.373702 13.003733 -6.373702 12.989395 C -6.297236 12.028796 -6.235108 11.072976 -6.177759 10.117156 C -5.876675 7.354837 -5.279288 4.664203 -4.404713 1.968791 C -3.482346 -0.874773 -1.76187 -8.000411 1.392336 -8.631253 C 4.016061 -9.152174 3.609838 -6.83909 3.891805 -4.583355 C 4.111643 -2.791192 4.245458 -0.984693 4.369715 0.812249 C 4.642124 4.721553 4.71381 8.630856 4.670798 12.544939 C 4.627786 16.406452 10.625557 16.411231 10.673348 12.544939 C 10.745034 5.897211 12.852617 -16.999457 1.076915 -15.97195 Z M 1.076915 -15.97195 " stroke="#000000" stroke-width="1" stroke-opacity="1" stroke-miterlimit="10"/><path stroke-linecap="butt" transform="matrix(0.817361, 0, 0, 0.817361, 369.82437, 308.713951)" fill-opacity="1" fill="#000000" fill-rule="nonzero" stroke-linejoin="miter" d="M 12.760011 -7.177116 C 12.750453 -7.320489 12.721778 -7.454303 12.688325 -7.588118 C 12.760011 -8.166389 12.616638 -8.792451 12.143507 -9.428072 C 8.090831 -14.900141 1.443103 -18.083022 -5.142497 -14.986165 C -12.502311 -11.526097 -13.396003 -2.130386 -11.665969 4.937903 C -10.251355 10.730172 -5.663419 18.080427 1.337962 15.408911 C 3.756187 14.486544 5.677385 12.646591 7.206697 10.343065 C 7.182802 11.48049 7.163685 12.613137 7.120673 13.750563 C 6.972521 17.612076 12.970292 17.602517 13.123223 13.750563 C 13.395631 6.75874 13.276154 -0.19963 12.760011 -7.177116 Z M 3.708396 3.499394 C 2.967635 5.16252 1.490894 9.067045 -0.415967 9.669212 C -2.977565 10.476879 -4.511656 7.437372 -5.204625 5.621314 C -6.485424 2.280723 -6.98723 -1.915327 -5.897595 -5.370616 C -3.90471 -11.683807 3.067996 -11.162885 6.676217 -6.746997 C 6.088388 -3.205684 5.180359 0.201815 3.708396 3.499394 Z M 3.708396 3.499394 " stroke="#000000" stroke-width="1" stroke-opacity="1" stroke-miterlimit="10"/><path stroke-linecap="butt" transform="matrix(0.817361, 0, 0, 0.817361, 399.759418, 309.989858)" fill-opacity="1" fill="#000000" fill-rule="nonzero" stroke-linejoin="miter" d="M 17.088097 -5.88978 C 16.643641 -9.779968 15.807299 -16.117054 10.932617 -16.819582 C 6.282552 -17.483877 3.936014 -13.034535 2.440156 -9.435872 C 2.248992 -8.967521 2.076944 -8.49439 1.895339 -8.021259 C 1.828431 -8.685554 1.766303 -9.349849 1.685058 -10.009364 C 1.221486 -13.861319 -0.785736 -17.689378 -5.316323 -16.757453 C -8.714263 -16.059705 -10.678473 -12.733451 -12.088308 -9.445431 C -12.159994 -10.903056 -12.222122 -12.355902 -12.303367 -13.813528 C -12.489752 -17.240142 -17.842344 -17.264038 -17.65118 -13.813528 C -17.178049 -5.005647 -16.896082 3.807014 -16.810058 12.629232 C -16.805279 13.088026 -16.700139 13.484691 -16.532871 13.819228 C -15.52926 16.280464 -11.22807 15.993718 -11.395338 12.896862 C -11.600839 9.054465 -11.28064 5.317209 -10.329599 1.579953 C -9.502815 -1.64116 -8.298481 -7.328289 -5.856361 -9.684386 C -3.218298 -12.226867 -3.519382 -8.642542 -3.36645 -6.721344 C -3.218298 -4.800145 -3.137054 -2.874168 -3.074925 -0.948191 C -2.94589 3.180951 -2.974564 7.314873 -3.003239 11.448794 C -3.022355 14.383162 1.6755 15.19083 2.253771 12.16088 C 2.741239 9.61362 6.468937 -12.351123 10.664987 -10.592415 C 11.783296 -10.124063 11.878878 -4.475167 11.945786 -3.509788 C 12.065263 -1.918348 12.065263 -0.31735 12.093938 1.27887 C 12.175183 5.594397 12.222974 9.914703 12.289881 14.23501 C 12.342451 17.675962 17.695043 17.68552 17.642473 14.23501 C 17.542112 7.568165 17.843195 0.743611 17.088097 -5.88978 Z M 17.088097 -5.88978 " stroke="#000000" stroke-width="1" stroke-opacity="1" stroke-miterlimit="10"/><path stroke-linecap="butt" transform="matrix(0.817361, 0, 0, 0.817361, 427.928958, 309.25096)" fill-opacity="1" fill="#000000" fill-rule="nonzero" stroke-linejoin="miter" d="M 4.63184 7.009765 C 2.548153 11.908342 -3.334919 11.057662 -4.60616 6.101736 C -4.950255 4.758808 -5.146198 3.153031 -5.213105 1.475567 C -1.404163 1.40388 5.128867 1.709743 7.733476 -0.808843 C 9.965316 -2.968996 9.20066 -7.748096 8.125362 -10.22367 C 5.315252 -16.694571 -3.592991 -18.582316 -7.994542 -12.632336 C -10.307626 -9.502026 -10.666058 -5.296418 -10.775978 -1.540045 C -10.905013 2.612993 -11.038828 8.605984 -8.496347 12.195088 C -3.96576 18.579965 6.682074 16.768687 9.602104 9.915457 C 11.040613 6.546192 6.084687 3.611824 4.63184 7.009765 Z M -1.0983 -10.32881 C 1.506309 -10.663347 3.164657 -8.531868 3.245901 -6.013283 C 3.14554 -5.578385 3.135982 -5.28686 3.212448 -5.129149 C 2.232732 -4.971439 1.253017 -4.837624 0.263743 -4.732484 C -1.456733 -4.536541 -3.181988 -4.417063 -4.912022 -4.321481 C -4.787766 -5.138707 -4.644393 -5.917701 -4.458008 -6.615449 C -3.917969 -8.598776 -3.248895 -10.056401 -1.0983 -10.32881 Z M -1.0983 -10.32881 " stroke="#000000" stroke-width="1" stroke-opacity="1" stroke-miterlimit="10"/><path stroke-linecap="butt" transform="matrix(0.817361, 0, 0, 0.817361, 264.491856, 428.503102)" fill-opacity="1" fill="#000000" fill-rule="nonzero" stroke-linejoin="miter" d="M 7.914595 -19.134533 C 3.21674 -22.709299 -2.699786 -22.522915 -8.066715 -20.802439 C -9.758516 -20.831113 -11.555458 -19.765374 -11.713168 -17.595662 C -12.597302 -5.60968 -13.142119 6.39064 -13.342841 18.405297 C -13.414528 22.706487 -6.733346 22.711266 -6.65688 18.405297 C -6.575636 13.325114 -6.413146 8.24971 -6.207645 3.174306 C 1.075703 6.381082 11.408117 3.41804 12.6698 -5.246468 C 13.415339 -10.379222 12.182332 -15.889524 7.914595 -19.134533 Z M 1.88815 -2.441137 C -0.812041 -1.915436 -3.775083 -2.436358 -5.662828 -4.500929 C -5.720177 -4.563057 -5.777526 -4.606069 -5.834875 -4.658639 C -5.658048 -7.984893 -5.457326 -11.311146 -5.227929 -14.632621 C 0.325385 -15.989885 6.480865 -14.948041 6.170224 -7.631239 C 6.045967 -4.711209 4.875088 -3.024187 1.88815 -2.441137 Z M 1.88815 -2.441137 " stroke="#000000" stroke-width="1" stroke-opacity="1" stroke-miterlimit="10"/><path stroke-linecap="butt" transform="matrix(0.817361, 0, 0, 0.817361, 285.296972, 434.82787)" fill-opacity="1" fill="#000000" fill-rule="nonzero" stroke-linejoin="miter" d="M 12.760078 -7.177896 C 12.750519 -7.321269 12.721845 -7.455084 12.688391 -7.588899 C 12.760078 -8.16717 12.616705 -8.793232 12.143574 -9.428852 C 8.090897 -14.896143 1.443169 -18.083802 -5.142431 -14.986946 C -12.502244 -11.526877 -13.395936 -2.126388 -11.665902 4.937122 C -10.251288 10.73417 -5.663353 18.084426 1.338029 15.412909 C 3.756253 14.490543 5.672673 12.64581 7.206764 10.347063 C 7.182868 11.47971 7.168531 12.612357 7.12074 13.749782 C 6.972588 17.611295 12.970358 17.606516 13.123289 13.749782 C 13.395698 6.762738 13.27622 -0.20041 12.760078 -7.177896 Z M 3.708462 3.498613 C 2.967702 5.16174 1.49096 9.066264 -0.415901 9.668431 C -2.977498 10.480878 -4.511589 7.436591 -5.209338 5.620533 C -6.485358 2.279942 -6.987163 -1.911328 -5.897528 -5.371396 C -3.904644 -11.684587 3.068063 -11.163666 6.676283 -6.742998 C 6.088454 -3.206464 5.180425 0.201034 3.708462 3.498613 Z M 3.708462 3.498613 " stroke="#000000" stroke-width="1" stroke-opacity="1" stroke-miterlimit="10"/><path stroke-linecap="butt" transform="matrix(0.817361, 0, 0, 0.817361, 308.145487, 435.230014)" fill-opacity="1" fill="#000000" fill-rule="nonzero" stroke-linejoin="miter" d="M -0.0441815 -4.515693 C -1.291527 -5.347257 -2.457627 -7.536084 -1.48747 -9.141862 C -0.746709 -10.365311 3.55926 -6.585043 3.368096 -7.163315 C 4.572429 -3.512082 10.369477 -5.074848 9.155586 -8.759534 C 7.038445 -15.173086 -4.899747 -18.714399 -7.270181 -10.733302 C -8.192547 -7.631666 -7.929696 -3.254011 -5.554484 -0.854903 C -3.623727 1.099749 -0.560324 1.018505 1.241396 3.05918 C 2.718138 4.736644 3.812552 7.527639 1.43256 9.391488 C -0.928315 11.23622 -3.618948 9.381929 -4.001276 6.887239 C -4.589105 3.083076 -10.371816 4.698411 -9.788766 8.483459 C -8.355036 17.802703 4.218776 18.710732 7.922578 10.390319 C 9.695624 6.399771 8.60121 1.807056 5.580819 -1.270684 C 3.889018 -2.99116 1.819668 -3.273127 -0.0441815 -4.515693 Z M -0.0441815 -4.515693 " stroke="#000000" stroke-width="1" stroke-opacity="1" stroke-miterlimit="10"/><path stroke-linecap="butt" transform="matrix(0.817361, 0, 0, 0.817361, 327.176089, 435.749038)" fill-opacity="1" fill="#000000" fill-rule="nonzero" stroke-linejoin="miter" d="M -0.043389 -4.515073 C -1.290734 -5.346636 -2.456834 -7.535464 -1.486677 -9.141241 C -0.745917 -10.364691 3.560052 -6.584423 3.368888 -7.162694 C 4.573222 -3.516241 10.37027 -5.079006 9.156378 -8.758913 C 7.039237 -15.172465 -4.898954 -18.713778 -7.274167 -10.732682 C -8.191754 -7.635825 -7.933683 -3.258169 -5.553691 -0.854282 C -3.627714 1.10037 -0.559532 1.019125 1.242189 3.059801 C 2.718931 4.737265 3.813345 7.528259 1.433353 9.392108 C -0.927522 11.232062 -3.618156 9.377771 -4.005263 6.88786 C -4.588313 3.083696 -10.371024 4.699032 -9.787974 8.484079 C -8.359023 17.803324 4.219568 18.711353 7.923371 10.39094 C 9.696417 6.395613 8.597224 1.807677 5.576833 -1.270064 C 3.88981 -2.99054 1.82046 -3.272507 -0.043389 -4.515073 Z M -0.043389 -4.515073 " stroke="#000000" stroke-width="1" stroke-opacity="1" stroke-miterlimit="10"/><path stroke-linecap="butt" transform="matrix(0.817361, 0, 0, 0.817361, 352.065543, 434.075062)" fill-opacity="1" fill="#000000" fill-rule="nonzero" stroke-linejoin="miter" d="M 10.003713 -11.58557 C 8.550866 -6.634423 7.09802 -1.678496 5.640395 3.272652 C 3.800441 0.534227 1.516031 -1.893555 -0.997775 -1.941346 C -3.425558 -1.984358 -5.738642 0.591577 -7.674178 3.506827 C -8.586986 -1.597251 -9.499794 -6.696551 -10.417381 -11.79585 C -11.096013 -15.590456 -16.878724 -13.984678 -16.200092 -10.199631 C -14.82849 -2.524397 -13.45211 5.150838 -12.075729 12.826072 C -11.602598 15.483252 -7.846225 15.588392 -6.594101 13.542937 C -5.64306 11.980172 -4.672903 10.431743 -3.645397 8.916769 C -2.961985 7.903599 -2.259458 6.909547 -1.537814 5.925052 C -1.241509 5.686097 -0.97388 5.466258 -0.744483 5.265536 C -0.209224 5.872482 0.292582 6.503323 0.746596 7.172397 C 1.974825 8.849861 2.983215 10.60857 3.924698 12.458082 C 5.143368 14.828515 8.718135 14.102092 9.411104 11.741217 C 11.537804 4.496101 13.664503 -2.749014 15.791203 -9.989351 C 16.876058 -13.702711 11.088568 -15.289373 10.003713 -11.58557 Z M 10.003713 -11.58557 " stroke="#000000" stroke-width="1" stroke-opacity="1" stroke-miterlimit="10"/><path stroke-linecap="butt" transform="matrix(0.817361, 0, 0, 0.817361, 377.315493, 434.968438)" fill-opacity="1" fill="#000000" fill-rule="nonzero" stroke-linejoin="miter" d="M 8.574823 -12.133753 C 8.388438 -13.175597 7.719364 -14.126638 6.424228 -14.528082 C -0.64884 -16.731247 -8.228492 -15.173261 -11.177197 -7.736981 C -13.953854 -0.726042 -12.80687 9.008985 -5.676453 12.975638 C 1.081194 16.73201 8.636951 12.191865 11.380155 5.697069 C 13.95609 -0.396284 13.038502 -7.564934 8.574823 -12.133753 Z M -3.927302 6.409155 C -6.981147 3.446113 -6.813879 -2.690252 -4.954809 -6.217227 C -3.420718 -9.132478 -0.476792 -9.476574 2.371551 -8.984326 C 11.236782 -3.569606 3.107533 13.233709 -3.927302 6.409155 Z M -3.927302 6.409155 " stroke="#000000" stroke-width="1" stroke-opacity="1" stroke-miterlimit="10"/><path stroke-linecap="butt" transform="matrix(0.817361, 0, 0, 0.817361, 400.486829, 434.429854)" fill-opacity="1" fill="#000000" fill-rule="nonzero" stroke-linejoin="miter" d="M 1.817835 -15.130834 C -0.648181 -15.04959 -2.574158 -14.270596 -4.151261 -13.047147 C -4.199052 -16.631472 -9.814494 -16.602797 -9.876623 -12.946786 C -10.024775 -4.315731 -10.172927 4.310544 -10.321079 12.93682 C -10.383207 16.631064 -4.648287 16.631064 -4.58138 12.93682 C -4.495356 7.698926 -4.404553 2.461033 -4.31375 -2.776861 C -3.396163 -5.003921 -2.196609 -7.995638 -0.127259 -8.956237 C 0.933701 -9.448484 2.735422 -9.754347 3.672126 -8.956237 C 4.752202 -8.03865 4.580155 -6.131789 4.594492 -4.85099 C 4.647062 -1.166304 10.381982 -1.151967 10.334191 -4.85099 C 10.257725 -10.294385 8.064118 -15.345894 1.817835 -15.130834 Z M 1.817835 -15.130834 " stroke="#000000" stroke-width="1" stroke-opacity="1" stroke-miterlimit="10"/><path stroke-linecap="butt" transform="matrix(0.817361, 0, 0, 0.817361, 421.936854, 426.905183)" fill-opacity="1" fill="#000000" fill-rule="nonzero" stroke-linejoin="miter" d="M 13.96532 -22.780663 C 14.156484 -26.709083 8.397669 -26.517919 7.96277 -22.780663 C 7.312813 -17.227349 6.729763 -11.688372 6.801449 -6.092046 C 6.815787 -4.84948 6.868357 -3.57824 6.906589 -2.30222 C 2.079698 -4.510164 -4.434215 -3.559123 -8.405647 -0.0990551 C -14.040206 4.81386 -14.159683 16.613457 -7.836934 21.120149 C -2.603819 24.852626 3.284032 22.195446 7.265022 17.937268 C 7.288917 19.57172 7.293696 21.206172 7.32715 22.840625 C 7.413174 26.697358 13.410944 26.711695 13.324921 22.840625 C 12.995163 7.628749 13.210222 -7.578346 13.96532 -22.780663 Z M -0.840332 16.49398 C -5.189312 17.014902 -6.412762 13.918045 -6.460553 10.276371 C -6.508344 6.969234 -5.299232 4.22603 -1.996874 3.083825 C 0.483479 2.228367 4.588726 1.984632 6.223178 4.565346 C 6.366551 4.799522 6.53382 4.990686 6.710646 5.162734 C 6.428679 7.327666 5.869525 9.43047 4.803785 11.385122 C 3.747604 13.315878 1.568335 16.202455 -0.840332 16.49398 Z M -0.840332 16.49398 " stroke="#000000" stroke-width="1" stroke-opacity="1" stroke-miterlimit="10"/><path stroke-linecap="butt" transform="matrix(0.817361, 0, 0, 0.817361, 210.380926, 417.133655)" fill-opacity="1" fill="#000000" fill-rule="nonzero" stroke-linejoin="miter" d="M -0.996523 -15.56178 C -15.171334 -15.389733 -18.287307 -0.851711 -18.440238 10.56078 C -18.507146 15.707871 -10.506932 15.71265 -10.440025 10.56078 C -10.349222 3.831807 -10.048139 -7.236588 -0.996523 -7.561567 C 7.31911 -7.857871 9.981069 1.834144 9.249867 8.548779 C 8.695491 13.657637 16.700484 13.619404 17.25008 8.548779 C 18.506983 -2.983189 11.6203 -15.714711 -0.996523 -15.56178 Z M -0.996523 -15.56178 " stroke="#000000" stroke-width="1" stroke-opacity="1" stroke-miterlimit="10"/><path stroke-linecap="butt" transform="matrix(0.817361, 0, 0, 0.817361, 206.356268, 326.888792)" fill-opacity="1" fill="#000000" fill-rule="nonzero" stroke-linejoin="miter" d="M 23.751149 -8.729173 C 17.37583 -15.190517 8.582286 -16.92533 -0.19692 -16.313605 C -8.378739 -15.749671 -16.885537 -14.569234 -22.92154 -8.490218 C -28.594332 -2.774415 -30.964766 5.115879 -31.786771 12.929707 C -32.068738 15.615562 -29.999387 16.867686 -27.887025 16.729092 C -27.796222 16.733871 -27.714978 16.752987 -27.619396 16.752987 C -9.262873 16.810337 9.09365 16.862907 27.450173 16.915477 C 29.930526 16.925035 31.206545 15.065965 31.297348 13.139988 C 31.397709 12.819788 31.478954 12.475693 31.507629 12.102923 C 32.071562 4.394235 29.184986 -3.22365 23.751149 -8.729173 Z M -17.745775 -2.344296 C -13.286875 -7.218978 -6.428867 -7.883273 -0.19692 -8.313392 C 6.230969 -8.757848 12.673196 -8.150902 17.58611 -3.558187 C 21.170435 -0.203259 23.11075 4.183955 23.473962 8.905705 C 7.946666 8.857914 -7.585409 8.814902 -23.117484 8.767111 C -22.214234 4.690539 -20.555886 0.723886 -17.745775 -2.344296 Z M -17.745775 -2.344296 " stroke="#000000" stroke-width="1" stroke-opacity="1" stroke-miterlimit="10"/><path stroke-linecap="butt" transform="matrix(0.817361, 0, 0, 0.817361, 208.469964, 294.11016)" fill-opacity="1" fill="#000000" fill-rule="nonzero" stroke-linejoin="miter" d="M 1.98662 -20.383822 C -3.987255 -20.670568 -9.980246 -18.582101 -14.654206 -14.906974 C -19.189572 -11.341765 -20.594627 -7.461136 -20.651976 -1.807461 C -20.757116 9.155795 -14.400914 19.124997 -2.677781 19.024636 C 7.912704 20.668646 17.313193 13.017307 18.961983 2.369473 C 20.758925 -9.210286 14.154208 -19.795993 1.98662 -20.383822 Z M 0.184899 11.311169 C -0.326464 11.076993 -0.923852 10.952736 -1.631159 10.995748 C -1.803206 11.005306 -1.960916 10.995748 -2.128185 10.995748 C -2.180755 10.98619 -2.233325 10.981411 -2.285895 10.967073 C -2.926295 10.809363 -3.518903 10.799805 -4.058941 10.904945 C -9.875106 10.121173 -12.642205 5.088781 -12.651763 -0.995014 C -12.661321 -4.608013 -12.40325 -6.710817 -9.363742 -8.961773 C -6.567969 -11.035903 -3.069668 -12.297585 0.414296 -12.397946 C 16.147093 -12.85674 13.332203 11.712613 0.184899 11.311169 Z M 0.184899 11.311169 " stroke="#000000" stroke-width="1" stroke-opacity="1" stroke-miterlimit="10"/></svg>